<?xml version="1.0" encoding="UTF-8"?> <svg xmlns="http://www.w3.org/2000/svg" width="538" height="497" viewBox="0 0 538 497" fill="none"> <path d="M272.417 232.196L118.211 264.987L272.417 297.778L426.615 264.987L272.417 232.196Z" fill="#C3E5F9"></path> <path d="M426.615 264.987V450.16L272.417 482.959V297.778L426.615 264.987Z" fill="#488BB0"></path> <path d="M118.211 264.987L272.417 297.778V482.959L118.211 450.16V264.987Z" fill="#6DA3C1"></path> <path d="M448.88 352.06L359.759 371.012L448.88 389.965L538 371.012L448.88 352.06Z" fill="#F6E1AE"></path> <path d="M538 371.012V478.038L448.879 496.991V389.964L538 371.012Z" fill="#DD8F1E"></path> <path d="M359.759 371.012L448.879 389.964V496.991L359.759 478.038V371.012Z" fill="#FED160"></path> <path d="M68.2693 373.239L0 387.753L68.2693 402.274L136.539 387.753L68.2693 373.239Z" fill="#EB4419"></path> <path d="M136.539 387.753V469.734L68.2693 484.255V402.274L136.539 387.753Z" fill="#751507"></path> <path d="M0 387.753L68.2693 402.274V484.255L0 469.734V387.753Z" fill="#A3270D"></path> <path d="M321.924 5.12876C318.383 3.57653 313.048 2.73833 311.634 3.04101C310.819 3.21176 310.314 11.7335 309.134 16.3902C309.009 16.8791 299.706 15.226 299.768 14.349C299.885 12.6803 302.486 1.38013 301.438 1.20162C292.196 -0.350605 267.222 -0.428217 256.722 1.13953C256.194 1.22491 257.545 10.7866 258.081 16.2738C258.174 17.2672 249.034 17.7406 248.848 17.0499C247.675 12.9132 246.774 6.42487 246.153 2.56758C246.029 1.79147 224.152 4.32936 219.128 6.26188C217.117 7.038 219.128 8.50485 224.75 32.479C227.857 45.898 233.611 41.4509 230.916 50.0425C229.798 53.6203 228.129 58.9523 231.654 62.3827C234.225 64.8895 238.31 64.4083 239.684 67.668C241.059 70.9277 236.539 70.8889 238.395 76.8494C239.583 80.6446 242.161 79.1312 244.608 82.1503C246.106 83.9819 245.384 95.3908 244.879 110.021C242.72 176.371 228.074 182.3 224.292 184.527C218.778 187.717 230.14 192.211 227.259 199.219C224.929 204.924 219.369 211.288 214.562 214.253C198.417 224.21 198.618 232.98 203.884 246.671C198.75 249.612 196.716 262.271 200.296 263.334C211.09 266.539 252.032 267.719 273.473 267.479C294.037 267.246 335.817 265.15 346.542 261.673C350.098 260.532 347.776 247.92 342.573 245.103C347.528 231.288 347.528 222.518 331.165 212.933C326.288 210.077 320.588 203.837 318.127 198.187C315.09 191.202 326.343 186.499 320.767 183.441C316.931 181.33 302.129 175.734 298.487 109.454C297.71 94.8397 296.67 83.4464 298.122 81.5837C300.529 78.4793 303.139 79.9617 304.241 76.1509C305.965 70.1593 301.446 70.2757 302.742 67.0083C304.039 63.7409 308.14 64.1056 310.648 61.5755C314.096 58.0597 312.31 52.7744 311.106 49.2198C308.217 40.6825 314.049 45.0055 316.868 31.5244C321.94 7.36397 323.889 6.00577 321.924 5.12876Z" fill="#063651"></path> <path d="M275.057 37.2438C272.689 33.8522 271.539 0.0912453 269.761 0.145573C265.4 0.239111 261.047 0.570747 256.722 1.139C256.194 1.23213 257.545 10.7939 258.081 16.2732C258.174 17.2666 249.034 17.7401 248.848 17.0493C247.675 12.9126 246.774 6.42433 246.153 2.56705C246.029 1.79093 224.152 4.32883 219.128 6.26135C217.117 7.03746 219.128 8.50432 224.75 32.4785C227.857 45.8975 233.611 41.4504 230.916 50.0419C229.798 53.6198 228.129 58.9517 231.654 62.3821C234.225 64.889 238.31 64.4078 239.684 67.6675C241.059 70.9272 236.539 70.8884 238.395 76.8489C239.583 80.6441 242.161 79.1307 244.608 82.1498C246.106 83.9814 245.384 95.3903 244.879 110.02C242.72 176.37 228.074 182.299 224.292 184.527C218.778 187.717 230.14 192.21 227.259 199.219C224.929 204.923 219.369 211.287 214.562 214.252C198.417 224.21 198.618 232.98 203.884 246.67C198.75 249.612 196.716 262.27 200.296 263.334C211.09 266.539 252.032 267.719 273.473 267.478H273.916C281.309 267.385 288.671 267.09 296.072 266.702C299.76 266.523 303.457 266.391 307.138 266.135C357.887 262.682 347.916 243.954 337.238 246.375C316.566 251.032 258.974 253.857 237.059 236.457C233.953 234.004 231.662 229.968 231.965 226.026C232.462 219.398 244.561 201.384 262.803 198.59C270.211 197.457 290.876 196.689 298.339 196.021C302.106 195.68 311.541 193.964 312.768 190.464C314.321 186.219 294.565 189.277 282.606 189.222C269.28 189.16 249.935 190.775 245.384 186.079C242.394 182.975 249.321 179.234 250.673 178.217C258.438 172.35 269.264 151.534 270.149 132.248C270.677 120.785 269.792 109.283 270.375 97.8195C271.221 80.9934 285.13 80.9157 288.236 81.0166C292.678 81.1719 293.501 79.154 285.642 78.5564C280.905 78.1916 276.145 78.0208 271.431 77.5707C265.901 77.0507 261.685 76.4608 257.149 73.1158C256.575 72.6889 250.525 67.1708 273.683 67.5588C282.683 67.714 291.956 68.0555 292.717 66.1618C293.913 63.166 280.563 63.1505 279.344 63.0574C263.036 61.8466 258.477 59.6735 256.419 55.2962C252.296 46.4641 273.737 43.6545 285.223 44.0348C295.318 44.3375 304.459 46.5882 303.247 43.67C301.997 40.4957 277.892 41.2874 275.057 37.2438Z" fill="#105074"></path> </svg> 