<?xml version="1.0" encoding="UTF-8"?> <svg xmlns="http://www.w3.org/2000/svg" width="132" height="120" viewBox="0 0 132 120" fill="none"> <path d="M66.0001 58.0005H79.2001C79.2001 63.2991 80.1397 68.5631 81.9828 73.5899L83.6001 78.0004V84.0003H61.6001V78.0004L63.2174 73.5899C65.0605 68.5631 66.0001 63.2991 66.0001 58.0005Z" fill="#F6E1AE"></path> <path d="M79.3376 61.0809C79.2669 60.056 79.2001 59.0297 79.2001 58.0005H66C66 59.0297 65.9343 60.0557 65.8625 61.0809C66.6755 61.9928 67.7022 62.7281 68.8676 63.2332C70.033 63.7382 71.3079 64.0003 72.599 64.0003C73.8901 64.0003 75.1649 63.7382 76.3303 63.2332C77.4958 62.7281 78.5224 61.9928 79.3354 61.0809H79.3376Z" fill="#DC9315"></path> <path d="M59.4001 82H85.8001V92.0002H59.4001V82Z" fill="#F6E1AE"></path> <path d="M57.2001 89.9995H88.0001V97.9996H57.2001V89.9995Z" fill="#F6E1AE"></path> <path d="M72.6001 62C77.4602 62 81.4001 58.4183 81.4001 54C81.4001 49.5817 77.4602 46 72.6001 46C67.7399 46 63.8 49.5817 63.8 54C63.8 58.4183 67.7399 62 72.6001 62Z" fill="#F6E1AE"></path> <path d="M88.0001 31.5996L75.3185 41.9747C73.9882 43.0629 73.166 44.5723 73.0201 46.1937C72.8742 47.8151 73.4156 49.4259 74.5336 50.6962C75.1322 51.3765 75.8777 51.938 76.7242 52.3462C77.5708 52.7543 78.5003 53.0004 79.4556 53.0693C80.4108 53.1381 81.3714 53.0283 82.2781 52.7465C83.1848 52.4647 84.0183 52.017 84.7273 51.431L96.8001 41.9997H99.0001C102.415 41.9997 105.784 41.2768 108.839 39.8882C111.894 38.4997 114.551 36.4836 116.6 33.9997H129.8V1.99951H88.2303C85.233 1.99951 82.3249 2.92686 79.9844 4.62902L66.5542 14.3966C65.0084 15.5208 63.7605 16.9467 62.9029 18.5688C62.0454 20.1908 61.6001 21.9674 61.6001 23.7671V40.9997C61.6001 42.8562 62.4113 44.6367 63.8554 45.9495C65.2994 47.2622 67.2579 47.9997 69.3001 47.9997C71.3423 47.9997 73.3008 47.2622 74.7448 45.9495C76.1888 44.6367 77.0001 42.8562 77.0001 40.9997V25.9996L83.6001 20.8568V27.9996L88.0001 31.5996Z" fill="#FAD7BE"></path> <path d="M2.20007 110H129.8V118H2.20007V110Z" fill="#EBEBEB"></path> <path d="M13.2001 110H48.4001V118H13.2001V110Z" fill="#B9B9B9"></path> <path d="M83.6001 110H118.8V118H83.6001V110Z" fill="#B9B9B9"></path> <path d="M48.4 104.001H10.9591L8.80007 102.001C7.49661 97.8532 7.5707 93.4481 9.01302 89.3388C10.4553 85.2295 13.2016 81.5995 16.9065 78.9049L26.4001 72.0006H15.4001L14.4101 72.9006C12.8285 74.3388 10.7475 75.2344 8.52139 75.435C6.29524 75.6355 4.06143 75.1287 2.20007 74.0006V68.0006L9.72159 61.1628C12.0255 59.0683 13.9429 56.6498 15.4001 54.0005L6.60007 44.0005L19.8001 46.0005C27.3853 46.0005 34.6598 48.7398 40.0233 53.6157C45.3868 58.4917 48.4 65.1049 48.4 72.0006V104.001Z" fill="#F2543B"></path> <path d="M35.8285 93.4087L38.9389 90.581L51.5547 102.05L48.4443 104.878L35.8285 93.4087Z" fill="#F2543B"></path> <path d="M6.6001 102H50.6001V110H6.6001V102Z" fill="#F2543B"></path> <path d="M94.6001 100H99.0001V104H94.6001V100Z" fill="#FBEEBD"></path> <path d="M94.6001 92H99.0001V96H94.6001V92Z" fill="#FBEEBD"></path> <path d="M94.6001 80H99.0001V87.9997H94.6001V80Z" fill="#FBEEBD"></path> <path d="M88.06 31.6704L83.6001 27.9999V20.8587L92.4001 14V21.9999L96.3078 24.8497L88.06 31.6704Z" fill="#EECCB6"></path> <path d="M39.5999 102H35.1999V68.9442C35.2087 66.6263 34.5028 64.3526 33.1623 62.3808C31.8218 60.4091 29.9004 58.8184 27.616 57.7889L29.5839 54.2109C32.6009 55.5706 35.1385 57.6717 36.9089 60.2758C38.6792 62.8799 39.6115 65.8829 39.5999 68.9442V102Z" fill="#F2543B"></path> <path d="M15.5128 103.265C14.0729 99.386 14.0474 95.188 15.4402 91.2945C16.8329 87.401 19.5695 84.0196 23.2439 81.6521L27.3219 79.0049L29.8794 82.2606L25.8017 84.9081C22.8957 86.7801 20.7313 89.4541 19.6298 92.5331C18.5284 95.6121 18.5485 98.932 19.6873 102L15.5128 103.265Z" fill="#F2543B"></path> <path d="M19.7999 64.0002C21.0149 64.0002 21.9999 63.1047 21.9999 62.0001C21.9999 60.8955 21.0149 60 19.7999 60C18.5848 60 17.5999 60.8955 17.5999 62.0001C17.5999 63.1047 18.5848 64.0002 19.7999 64.0002Z" fill="#F2543B"></path> <path d="M129.8 0H88.22C84.7304 0.00111267 81.3446 1.07949 78.6173 3.0585L65.1728 12.8405C63.369 14.1486 61.9131 15.8098 60.9136 17.7004C59.9141 19.5911 59.3967 21.6624 59.4 23.76V41C59.4055 42.4316 59.7849 43.8415 60.5072 45.1137C61.2294 46.3859 62.2737 47.4839 63.5541 48.3173C62.2488 50.0291 61.5659 52.0696 61.6013 54.1523C61.6368 56.2349 62.3888 58.2552 63.7519 59.9295C63.5499 64.357 62.6715 68.7375 61.1418 72.945L59.5138 77.365C59.4385 77.5697 59.4 77.7842 59.4 78V80C58.8165 80 58.2569 80.2107 57.8444 80.5858C57.4318 80.9609 57.2 81.4696 57.2 82V88C56.6165 88 56.0569 88.2107 55.6444 88.5858C55.2318 88.9609 55 89.4696 55 90V98C55 98.5305 55.2318 99.0392 55.6444 99.4142C56.0569 99.7893 56.6165 100 57.2 100H88C88.5835 100 89.143 99.7893 89.5556 99.4142C89.9682 99.0392 90.2 98.5305 90.2 98V90C90.2 89.4696 89.9682 88.9609 89.5556 88.5858C89.143 88.2107 88.5835 88 88 88V82C88 81.4696 87.7682 80.9609 87.3556 80.5858C86.943 80.2107 86.3835 80 85.8 80V78C85.8 77.7842 85.7615 77.5697 85.6861 77.365L84.0617 72.955C82.5307 68.7445 81.6514 64.3608 81.4492 59.93C82.7482 58.332 83.4937 56.4183 83.5904 54.4333C84.5396 54.0714 85.4149 53.5667 86.1795 52.9403L97.6156 44H99C102.566 43.992 106.087 43.2713 109.313 41.8888C112.539 40.5063 115.391 38.4959 117.667 36H129.8C130.383 36 130.943 35.7893 131.356 35.4142C131.768 35.0392 132 34.5304 132 34V2C132 1.46957 131.768 0.960859 131.356 0.585786C130.943 0.210714 130.383 0 129.8 0ZM82.1282 29.4865L84.7272 31.613L79.2 36.1283V26.9203L81.4 25.207V28C81.4 28.2803 81.4648 28.5575 81.5903 28.8136C81.7157 29.0697 81.899 29.299 82.1282 29.4865ZM85.8 27.1093V21.7785L90.2 18.35V22C90.2 22.2995 90.274 22.5951 90.4165 22.8651C90.559 23.1351 90.7664 23.3726 91.0233 23.56L92.9052 24.9323L88.0184 28.925L85.8 27.1093ZM71.4428 49.7843C71.7806 50.5627 72.2433 51.2913 72.8159 51.9465C73.5794 52.8213 74.5289 53.5474 75.6076 54.0816C76.6864 54.6159 77.8724 54.9472 79.0949 55.056C78.8022 56.5299 77.9136 57.851 76.6039 58.7596C75.2941 59.6683 73.6579 60.0987 72.0168 59.9664C70.3757 59.834 68.8484 59.1485 67.7351 58.0444C66.6217 56.9404 66.0028 55.4978 66 54C65.9968 52.4705 66.643 50.999 67.804 49.892C68.2988 49.9633 68.799 49.9994 69.3 50C70.0208 49.9998 70.7394 49.9276 71.4428 49.7848V49.7843ZM85.8 96H59.4V92H85.8V96ZM61.6 88V84H83.6V88H61.6ZM63.8 80V78.325L65.3177 74.204C66.6326 70.5829 67.5063 66.8415 67.9231 63.047C69.3858 63.6738 70.9829 63.9989 72.6 63.9989C74.2171 63.9989 75.8142 63.6738 77.2769 63.047C77.6947 66.8448 78.5695 70.5895 79.8858 74.2138L81.4 78.325V80H63.8ZM127.6 32H116.6C116.258 32 115.922 32.0723 115.616 32.2112C115.311 32.35 115.045 32.5516 114.84 32.8C112.991 35.0306 110.598 36.8415 107.85 38.0907C105.102 39.3399 102.073 39.9934 99 40H96.8C96.2737 40.0001 95.7649 40.1716 95.3659 40.4835L83.2879 49.9233C83.2719 49.936 83.256 49.9483 83.2403 49.9615C82.5811 50.5003 81.7731 50.8658 80.9028 51.0188C80.6104 51.0722 80.313 51.0994 80.0148 51.0998C79.2934 51.1014 78.5809 50.9544 77.9308 50.67C77.2807 50.3856 76.7098 49.9711 76.2611 49.4575C75.6427 48.7529 75.2774 47.8926 75.2144 46.993C75.2122 46.9613 75.2051 46.9305 75.2012 46.899H75.2053C75.1872 46.6766 75.195 46.4532 75.2284 46.2323C75.3592 45.1662 75.9186 44.1817 76.7992 43.4678L97.6467 26.4375C97.9115 26.2531 98.1267 26.0163 98.276 25.7451C98.4253 25.4739 98.5049 25.1754 98.5086 24.8721C98.5123 24.5689 98.4401 24.2689 98.2974 23.9947C98.1548 23.7206 97.9454 23.4795 97.6852 23.2898L94.6008 21.0398V14C94.6008 13.6175 94.4801 13.243 94.2531 12.921C94.0261 12.5989 93.7022 12.3428 93.3199 12.183C92.9377 12.0232 92.513 11.9664 92.0963 12.0194C91.6796 12.0723 91.2883 12.2328 90.9689 12.4818L82.1689 19.3405L75.5689 24.4805C75.3277 24.6683 75.1341 24.9014 75.0013 25.1637C74.8686 25.426 74.7999 25.7113 74.8 26V39.7225L73.8548 40.4948C72.1726 41.8648 71.1046 43.7502 70.8548 45.7908C69.8511 46.0673 68.7801 46.0697 67.7748 45.7978C66.6315 45.4952 65.6265 44.8644 64.91 43.9996C64.1936 43.1349 63.8042 42.0826 63.8 41V23.76C63.7981 22.2618 64.1681 20.7825 64.8823 19.4322C65.5965 18.082 66.6365 16.8957 67.925 15.9615L81.3686 6.18025C83.3147 4.76877 85.7304 4.00003 88.22 4H127.6V32Z" fill="#105074"></path> <path d="M129.8 108H52.8V102C52.8 101.469 52.5682 100.96 52.1556 100.585C51.7431 100.21 51.1835 99.9996 50.6 99.9996V71.9996C50.5907 64.6053 47.3681 57.5138 41.6341 52.2694C35.9 47.0251 28.1189 44.0527 19.9854 43.9996L6.96162 42.0264C6.52215 41.9596 6.07073 42.0157 5.6671 42.1873C5.26346 42.3588 4.92665 42.6378 4.70123 42.9872C4.4758 43.3366 4.37239 43.74 4.40469 44.144C4.43698 44.548 4.60345 44.9335 4.88207 45.2496L12.7793 54.2246C11.5254 56.2487 9.97329 58.1076 8.16585 59.7496L0.644325 66.5854C0.440039 66.7711 0.277992 66.9916 0.167439 67.2342C0.056885 67.4769 -1.05258e-05 67.737 1.4606e-09 67.9996V73.9996C6.19057e-06 74.3288 0.0894156 74.653 0.260293 74.9432C0.431171 75.2335 0.678233 75.481 0.97955 75.6636C3.26584 77.0427 6.00589 77.6618 8.73636 77.416C11.4668 77.1702 14.0202 76.0748 15.9646 74.3148L16.3111 73.9996H20.1284L15.5323 77.3421C11.8552 80.0075 9.0353 83.5237 7.36854 87.5215C5.70177 91.5193 5.24965 95.8514 6.05963 100.063C5.58555 100.172 5.16501 100.422 4.86446 100.772C4.56391 101.123 4.40048 101.555 4.4 102V108H2.2C1.61652 108 1.05695 108.21 0.644365 108.585C0.231785 108.96 1.4606e-09 109.469 1.4606e-09 110V118C1.4606e-09 118.53 0.231785 119.039 0.644365 119.414C1.05695 119.789 1.61652 120 2.2 120H129.8C130.383 120 130.943 119.789 131.356 119.414C131.768 119.039 132 118.53 132 118V110C132 109.469 131.768 108.96 131.356 108.585C130.943 108.21 130.383 108 129.8 108ZM39.6 91.1713V86.8278L46.2 92.8278V97.1713L39.6 91.1713ZM39.6 76.8278L46.2 82.8278V87.1713L39.6 81.1713V76.8278ZM46.2 77.1713L39.6 71.1714V68.9439C39.6 68.5966 39.5863 68.2516 39.5631 67.9084L46.2 72.9364V77.1713ZM39.6 96.8278L43.0889 99.9996H39.6V96.8278ZM18.2809 80.4656L27.775 73.5614C28.131 73.3024 28.3898 72.9493 28.5155 72.5509C28.6411 72.1525 28.6275 71.7284 28.4766 71.3373C28.3256 70.9462 28.0447 70.6074 27.6727 70.3678C27.3007 70.1281 26.8559 69.9995 26.4 69.9996H15.4C15.1111 69.9996 14.825 70.0513 14.5581 70.1518C14.2912 70.2523 14.0486 70.3996 13.8443 70.5854L12.8543 71.4854C11.7666 72.4701 10.3727 73.1277 8.86084 73.3693C7.34897 73.6109 5.79194 73.425 4.4 72.8366V68.8279L11.2772 62.5761C13.7491 60.3303 15.8057 57.7362 17.3676 54.8941C17.5557 54.5523 17.6322 54.1687 17.5879 53.7887C17.5437 53.4086 17.3806 53.048 17.1179 52.7496L11.9097 46.8316L19.4384 47.9724C19.5579 47.9904 19.6788 47.9996 19.8 47.9996C25.9124 48.0069 31.8332 49.939 36.5554 53.4671C41.2776 56.9952 44.5095 61.9016 45.7014 67.3516L37.4151 61.0746C35.6425 58.1096 32.9081 55.7131 29.584 54.2111L27.6161 57.7886C30.3254 59.0116 32.5119 61.0172 33.833 63.4911L33.7915 63.5364L33.8968 63.6161C34.7579 65.283 35.2029 67.1023 35.2 68.9439V99.9996H19.1169C18.5213 97.1661 18.8348 94.2368 20.0199 91.5608C21.2051 88.8849 23.2119 86.5753 25.8011 84.9076L29.8788 82.2598L27.3213 79.0048L23.2436 81.6528C20.0837 83.6882 17.6076 86.4811 16.0909 89.7204C14.5743 92.9598 14.0769 96.5183 14.6539 99.9996H10.5229C9.70294 96.4098 9.99392 92.6837 11.3635 89.2353C12.733 85.7869 15.1275 82.7512 18.2809 80.4656ZM8.8 104H48.4V108H8.8V104ZM4.4 112H11V116H4.4V112ZM15.4 112H46.2V116H15.4V112ZM50.6 112H81.4V116H50.6V112ZM85.8 116V112H116.6V116H85.8ZM127.6 116H121V112H127.6V116Z" fill="#105074"></path> <path d="M94.6001 100H99.0001V104H94.6001V100Z" fill="#105074"></path> <path d="M94.6001 92H99.0001V96H94.6001V92Z" fill="#105074"></path> <path d="M94.6001 80H99.0001V87.9997H94.6001V80Z" fill="#105074"></path> <path d="M19.8001 64.0002C21.0151 64.0002 22.0001 63.1047 22.0001 62.0001C22.0001 60.8955 21.0151 60 19.8001 60C18.5851 60 17.6001 60.8955 17.6001 62.0001C17.6001 63.1047 18.5851 64.0002 19.8001 64.0002Z" fill="#105074"></path> </svg> 