<?xml version="1.0" encoding="UTF-8"?> <svg xmlns="http://www.w3.org/2000/svg" width="56" height="56" viewBox="0 0 56 56" fill="none"> <path d="M28 43.2572C27.3959 43.2572 26.9062 42.7676 26.9062 42.1635V42.1547C26.9062 42.1533 26.9062 42.1518 26.9062 42.1504C26.9062 42.1489 26.9062 42.1474 26.9062 42.146C26.9062 41.5419 27.3959 41.0522 28 41.0522C28.6041 41.0522 29.0938 41.5419 29.0938 42.146C29.0938 42.1474 29.0938 42.1489 29.0938 42.1504C29.0938 42.1518 29.0938 42.1532 29.0938 42.1547C29.0938 42.1563 29.0938 42.1576 29.0938 42.1591C29.0938 42.1607 29.0938 42.162 29.0938 42.1635C29.0938 42.7676 28.6041 43.2572 28 43.2572Z" fill="#F6E1AE"></path> <path d="M45.2812 56H37.1875C36.5834 56 36.0938 55.5103 36.0938 54.9062V33.4141C36.0938 32.81 36.5834 32.3203 37.1875 32.3203H43.6337L44.2001 26.6924H37.1875C36.5834 26.6924 36.0938 26.2027 36.0938 25.5987V20.4011C36.0938 18.0344 37.7424 17.1946 39.1542 17.1946H44.2666V11.7631H37.21C29.8845 11.7631 29.0936 17.495 29.0936 19.9594V25.6477C29.0936 26.2517 28.604 26.7414 27.9999 26.7414H22.6405V32.3203H27.9999C28.604 32.3203 29.0936 32.81 29.0936 33.4141V37.625C29.0936 38.2291 28.604 38.7188 27.9999 38.7188C27.3958 38.7188 26.9061 38.2291 26.9061 37.625V34.5078H21.5468C20.9427 34.5078 20.453 34.0181 20.453 33.4141V25.6478C20.453 25.0437 20.9427 24.554 21.5468 24.554H26.9061V19.9595C26.9061 18.4961 27.1654 15.6856 28.9015 13.3058C30.1428 11.6041 32.5919 9.57567 37.21 9.57567H45.3603C45.9644 9.57567 46.4541 10.0653 46.4541 10.6694V18.2885C46.4541 18.8926 45.9644 19.3822 45.3603 19.3822H39.1542C38.5178 19.3822 38.2812 19.6584 38.2812 20.4012V24.505H45.4094C45.7185 24.505 46.0133 24.6358 46.2207 24.8651C46.428 25.0943 46.5287 25.4006 46.4977 25.7083L45.7112 33.5237C45.655 34.0825 45.1847 34.5079 44.6229 34.5079H38.2812V53.8125H45.2812C49.9854 53.8125 53.8125 49.9854 53.8125 45.2812V10.7188C53.8125 6.01464 49.9854 2.1875 45.2812 2.1875H10.7188C6.01464 2.1875 2.1875 6.01464 2.1875 10.7188V45.2812C2.1875 49.9854 6.01464 53.8125 10.7188 53.8125H26.9062V46.4297C26.9062 45.8256 27.3959 45.3359 28 45.3359C28.6041 45.3359 29.0938 45.8256 29.0938 46.4297V54.9062C29.0938 55.5103 28.6041 56 28 56H10.7188C4.80834 56 0 51.1917 0 45.2812V10.7188C0 4.80834 4.80834 0 10.7188 0H45.2812C51.1917 0 56 4.80834 56 10.7188V45.2812C56 51.1917 51.1917 56 45.2812 56Z" fill="#F6E1AE"></path> <path d="M6.34375 22.5312C5.73967 22.5312 5.25 22.0416 5.25 21.4375V12.3047C5.25 11.7006 5.73967 11.2109 6.34375 11.2109C6.94783 11.2109 7.4375 11.7006 7.4375 12.3047V21.4375C7.4375 22.0416 6.94783 22.5312 6.34375 22.5312Z" fill="#F6E1AE"></path> <path d="M6.34375 27.2888C5.73967 27.2888 5.25 26.7991 5.25 26.195V26.1821C5.25 25.578 5.73967 25.0884 6.34375 25.0884C6.94783 25.0884 7.4375 25.578 7.4375 26.1821V26.195C7.4375 26.7991 6.94783 27.2888 6.34375 27.2888Z" fill="#F6E1AE"></path> </svg> 