<?xml version="1.0" encoding="UTF-8"?> <svg xmlns="http://www.w3.org/2000/svg" width="121" height="120" viewBox="0 0 121 120" fill="none"> <path d="M40.7614 69.2325C39.4452 71.6712 38.7097 74.4583 38.7097 77.4196V78.368C38.7097 80.2647 38.1485 82.1421 37.0839 83.7292L36.0388 85.2776C35.2646 86.4583 34.8388 87.8518 34.8388 89.2647C34.8388 90.3873 35.0904 91.4905 35.5936 92.4776L36.9872 95.2454C37.9356 97.1615 37.1614 99.4841 35.2452 100.432L35.1097 100.51C33.4839 101.323 32.2259 102.697 31.5485 104.323C30.5033 103.22 29.0517 102.581 27.4839 102.581C25.9936 102.581 24.5614 103.181 23.5162 104.226L21.2904 106.452V118.065H13.5485C7.142 118.065 1.93555 112.858 1.93555 106.452V85.5292C1.93555 81.5421 3.29039 77.6518 5.80651 74.5357C8.30329 71.3808 11.8259 69.1938 15.7355 68.3228L21.7936 66.9873L27.0968 79.355L36.7743 71.6131L40.7614 69.2325Z" fill="#6DA3C1"></path> <path d="M36.7741 71.6131L27.0967 79.355L21.7935 66.9873L27.0967 65.8066L36.7741 71.6131Z" fill="#6DA3C1"></path> <path d="M106.452 94.8388V106.452H98.7097L96.4839 104.226C95.4388 103.181 94.0065 102.581 92.5162 102.581C90.9485 102.581 89.4968 103.219 88.4517 104.323C87.7743 102.697 86.5162 101.323 84.8904 100.51L84.7549 100.432C82.8388 99.484 82.0646 97.1614 83.013 95.2453L84.4065 92.4775C84.9097 91.4904 85.1614 90.3872 85.1614 89.2646C85.1614 87.8517 84.7356 86.4582 83.9614 85.2775L82.9162 83.7292C81.8517 82.1421 81.2904 80.2646 81.2904 78.3679V77.4195C81.2904 74.3034 80.4581 71.3614 79.0259 68.8259C80.342 69.3872 81.7549 69.6775 83.2259 69.6775C85.0452 69.6775 86.7872 69.213 88.3356 68.4001C89.8839 67.5485 91.2388 66.3485 92.2452 64.8388L92.9033 63.8711C92.9033 63.8711 98.3614 64.6453 102.329 65.2259C102.561 65.2646 102.813 65.3033 103.045 65.3421C105.503 65.7872 107.845 66.7163 109.936 68.1292L110.071 68.2259C115.065 71.555 118.084 77.1679 118.084 83.1872L118.065 94.8388H106.452Z" fill="#FBEEBD"></path> <path d="M52.258 112.258C52.8193 112.258 53.3418 112.161 53.8451 112.006C53.9031 115.355 56.6322 118.065 59.9999 118.065H34.8386C36.4451 118.065 37.8967 117.406 38.9419 116.361C39.987 115.316 40.6451 113.865 40.6451 112.258C40.6451 111.097 40.2967 110.013 39.716 109.103C41.7289 106.935 44.187 105.213 46.9548 104.09C46.6257 104.806 46.4515 105.619 46.4515 106.452C46.4515 109.665 49.0451 112.258 52.258 112.258Z" fill="#F2543B"></path> <path d="M67.7419 112.258C70.9548 112.258 73.5484 109.665 73.5484 106.452C73.5484 105.619 73.3742 104.806 73.0452 104.09C75.8129 105.213 78.271 106.935 80.2839 109.084C79.7032 109.994 79.3548 111.077 79.3548 112.258C79.3548 113.865 80.0129 115.316 81.0581 116.361C82.1032 117.406 83.5548 118.065 85.1613 118.065H60C63.3677 118.065 66.0968 115.355 66.1548 112.006C66.6581 112.161 67.1806 112.258 67.7419 112.258Z" fill="#F2543B"></path> <path d="M67.742 100.645C70.1226 100.645 72.1549 102.058 73.0452 104.09C73.3742 104.806 73.5484 105.619 73.5484 106.451C73.5484 109.664 70.9549 112.258 67.742 112.258C67.1807 112.258 66.6581 112.161 66.1549 112.006C66.0968 115.355 63.3678 118.064 60 118.064C56.6323 118.064 53.9033 115.355 53.8452 112.006C53.342 112.161 52.8194 112.258 52.2581 112.258C49.0452 112.258 46.4517 109.664 46.4517 106.451C46.4517 105.619 46.6259 104.806 46.9549 104.09C47.8452 102.058 49.8775 100.645 52.2581 100.645C52.5484 100.645 52.8388 100.664 53.1291 100.703C53.4775 100.916 53.8259 101.11 54.1936 101.264V101.284V104.516C54.1936 107.729 56.7871 110.322 60 110.322C61.6065 110.322 63.0581 109.664 64.1033 108.619C65.1484 107.574 65.8065 106.122 65.8065 104.516V101.284V101.264C66.1742 101.11 66.5226 100.916 66.871 100.703C67.1613 100.664 67.4517 100.645 67.742 100.645Z" fill="#FC6E51"></path> <path d="M84.8903 100.51C86.5161 101.323 87.7741 102.697 88.4516 104.323C88.0645 104.729 87.7354 105.194 87.4838 105.697L87.0967 106.452H85.1612C83.129 106.452 81.329 107.497 80.2838 109.084C78.2709 106.935 75.8129 105.213 73.0451 104.09C72.1548 102.058 70.1225 100.645 67.7419 100.645C67.4516 100.645 67.1612 100.665 66.8709 100.703C70.8774 98.3613 73.5483 94.0065 73.5483 89.0323V82.6258C73.5483 79.6645 71.3225 77.1677 68.3806 76.8387L64.0645 76.3742C61.1612 76.0452 58.5677 74.6516 56.729 72.5419L53.4774 73.471C49.3161 74.671 46.4516 78.4645 46.4516 82.7806V89.0323C46.4516 92.7871 47.9612 96.1548 50.4193 98.6129C51.2322 99.4258 52.1419 100.123 53.129 100.703C52.8387 100.665 52.5483 100.645 52.258 100.645C49.8774 100.645 47.8451 102.058 46.9548 104.09C44.1871 105.213 41.729 106.935 39.7161 109.103C38.6903 107.497 36.8903 106.452 34.8387 106.452H32.9032L32.5161 105.697C32.2645 105.194 31.9354 104.729 31.5483 104.323C32.2258 102.697 33.4838 101.323 35.1096 100.51L35.2451 100.432C37.1612 99.4839 37.9354 97.1613 36.9871 95.2452L35.5935 92.4774C35.0903 91.4903 34.8387 90.3871 34.8387 89.2645C34.8387 87.8516 35.2645 86.4581 36.0387 85.2774L37.0838 83.729C38.1483 82.1419 38.7096 80.2645 38.7096 78.3677V77.4194C38.7096 74.4581 39.4451 71.671 40.7612 69.2323C42 66.871 43.7806 64.8387 45.9483 63.2903C48.7935 61.2194 52.3354 60 56.129 60H59.4774H63.8709C67.529 60 70.9354 61.1419 73.7419 63.0774C75.9096 64.5677 77.729 66.5226 79.0258 68.8258C80.458 71.3613 81.2903 74.3032 81.2903 77.4194V78.3677C81.2903 80.2645 81.8516 82.1419 82.9161 83.729L83.9612 85.2774C84.7354 86.4581 85.1612 87.8516 85.1612 89.2645C85.1612 90.3871 84.9096 91.4903 84.4064 92.4774L83.0129 95.2452C82.0645 97.1613 82.8387 99.4839 84.7548 100.432L84.8903 100.51Z" fill="#86869C"></path> <path d="M74.1678 17.8646H74.1485L73.142 18.1936C67.6065 20.0517 63.871 25.2194 63.871 31.0646V38.7097C63.871 37.0452 63.1743 35.5549 62.0517 34.4904C63.2517 30.7549 63.871 26.8452 63.871 22.9162C63.871 19.3162 62.9614 15.9485 61.3743 12.9872C66.3098 6.29039 74.2646 1.93555 83.2259 1.93555C90.6968 1.93555 97.471 4.97426 102.387 9.87103C107.284 14.7872 110.323 21.5614 110.323 29.0323V47.1097C110.323 53.9033 107.71 60.4259 103.045 65.342C102.813 65.3033 102.561 65.2646 102.329 65.2259C98.3614 64.6452 92.9033 63.871 92.9033 63.871L91.0452 56.4194V56.4001C97.8388 53.4001 102.581 46.6065 102.581 38.7097V32.4388C102.581 28.3549 99.4065 24.9678 95.3227 24.7162L85.142 24.0775C80.5743 23.7872 76.6065 21.3872 74.1678 17.8646Z" fill="#86869C"></path> <path d="M75.4066 56.3998V56.4191L73.7421 63.0772C70.9356 61.1417 67.5292 59.9998 63.8711 59.9998H59.4775C57.3098 56.0901 56.1292 51.6579 56.1292 47.1095V44.5159H58.0646C59.6711 44.5159 61.1227 43.8579 62.1679 42.8127C63.213 41.7675 63.8711 40.3159 63.8711 38.7095C63.8711 44.0514 66.0388 48.8901 69.5421 52.3933C71.2259 54.0772 73.2001 55.4321 75.4066 56.3998Z" fill="#86869C"></path> <path d="M106.452 106.452V94.8389H118.064V106.452C118.064 112.858 112.858 118.065 106.452 118.065H85.1612C83.5547 118.065 82.1031 117.407 81.058 116.361C80.0128 115.316 79.3547 113.865 79.3547 112.258C79.3547 111.078 79.7031 109.994 80.2838 109.084C81.3289 107.497 83.1289 106.452 85.1612 106.452H87.0967L87.4838 105.697C87.7354 105.194 88.0644 104.729 88.4515 104.323C89.4967 103.22 90.9483 102.581 92.516 102.581C94.0063 102.581 95.4386 103.181 96.4838 104.226L98.7096 106.452H106.452Z" fill="#FFCCAA"></path> <path d="M91.0452 56.4193L92.9032 63.8709L92.2452 64.8386C91.2387 66.3483 89.8839 67.5483 88.3355 68.3999C86.7871 69.2128 85.0452 69.6773 83.2258 69.6773C81.7548 69.6773 80.3419 69.387 79.0258 68.8257C77.729 66.5225 75.9097 64.5676 73.7419 63.0773L75.4065 56.4193V56.3999C77.7871 57.4838 80.4387 58.0644 83.2258 58.0644C86.0129 58.0644 88.6645 57.4838 91.0452 56.3999V56.4193Z" fill="#FFCCAA"></path> <path d="M74.1676 17.8643C76.6063 21.3868 80.5741 23.7868 85.1418 24.0772L95.3225 24.7159C99.4063 24.9675 102.581 28.3546 102.581 32.4385V38.7094C102.581 46.6062 97.8386 53.3997 91.045 56.3997C88.6644 57.4836 86.0128 58.0643 83.2257 58.0643C80.4386 58.0643 77.787 57.4836 75.4063 56.3997C73.1999 55.432 71.2257 54.0772 69.5418 52.3933C66.0386 48.8901 63.8708 44.0514 63.8708 38.7094V31.0643C63.8708 25.2191 67.6063 20.0514 73.1418 18.1933L74.1483 17.8643H74.1676Z" fill="#FFCCAA"></path> <path d="M73.5484 82.6259V89.0323C73.5484 94.0065 70.8775 98.3613 66.871 100.703C66.5226 100.916 66.1742 101.11 65.8065 101.265C64.0452 102.116 62.071 102.581 60 102.581L54.1936 101.265C53.8259 101.11 53.4775 100.916 53.1291 100.703C52.142 100.123 51.2323 99.4259 50.4194 98.613C47.9613 96.1549 46.4517 92.7872 46.4517 89.0323V82.7807C46.4517 78.4646 49.3162 74.671 53.4775 73.471L56.7291 72.542C58.5678 74.6517 61.1613 76.0452 64.0646 76.3742L68.3807 76.8388C71.3226 77.1678 73.5484 79.6646 73.5484 82.6259Z" fill="#FFCCAA"></path> <path d="M65.8065 101.284V104.516C65.8065 106.123 65.1484 107.574 64.1033 108.619C63.0581 109.665 61.6065 110.323 60.0001 110.323C56.7872 110.323 54.1936 107.729 54.1936 104.516V101.284V101.265L60.0001 102.581C62.071 102.581 64.0452 102.116 65.8065 101.265V101.284Z" fill="#FFCCAA"></path> <path d="M39.7161 109.103C40.2967 110.013 40.6451 111.097 40.6451 112.258C40.6451 113.864 39.9871 115.316 38.9419 116.361C37.8967 117.406 36.4451 118.064 34.8387 118.064H21.2903V106.452L23.5161 104.226C24.5613 103.181 25.9935 102.581 27.4838 102.581C29.0516 102.581 30.5032 103.219 31.5483 104.323C31.9354 104.729 32.2645 105.193 32.5161 105.697L32.9032 106.452H34.8387C36.8903 106.452 38.6903 107.497 39.7161 109.103Z" fill="#FFCCAA"></path> <path d="M44.9418 58.2194L45.9483 63.2903C43.7806 64.8387 41.9999 66.871 40.7612 69.2323L36.7741 71.6129L27.0967 65.8065L28.6064 58.2194L28.6257 58.1807C31.1031 59.3613 33.8515 60 36.7741 60C39.6967 60 42.4451 59.3613 44.9225 58.1807L44.9418 58.2194Z" fill="#FFCCAA"></path> <path d="M25.4517 20.3807L23.0904 21.7936C19.5678 23.8839 17.4194 27.6775 17.4194 31.7614V32.9033H15.4839C13.9356 32.9033 12.5227 33.5226 11.4968 34.4904C10.2968 30.7549 9.67749 26.8452 9.67749 22.9162C9.67749 17.1097 12.0194 11.8839 15.813 8.07103C19.6259 4.27748 24.8517 1.93555 30.6581 1.93555H42.8904C50.8839 1.93555 57.8517 6.40651 61.3743 12.9872C62.9614 15.9485 63.871 19.3162 63.871 22.9162C63.871 26.8452 63.2517 30.7549 62.0517 34.4904C61.0259 33.5226 59.613 32.9033 58.0646 32.9033H56.1291C56.1291 28.6259 52.6646 25.1614 48.3872 25.1614H31.9162C30.0388 25.1614 28.3549 24.4065 27.1356 23.1872C26.3614 22.413 25.7807 21.4646 25.4517 20.3807Z" fill="#B27946"></path> <path d="M55.7419 44.5162C55.9936 43.2775 56.129 41.9807 56.129 40.6453V32.9033H58.0645C59.6129 32.9033 61.0258 33.5227 62.0516 34.4904C63.1742 35.5549 63.871 37.0453 63.871 38.7098C63.871 40.3162 63.2129 41.7678 62.1677 42.813C61.1226 43.8582 59.671 44.5162 58.0645 44.5162H56.129H55.7419Z" fill="#FFCCAA"></path> <path d="M42.871 42.5809H30.6775C28.4904 42.5809 26.4775 43.8196 25.4904 45.7938L21.8904 53.0131C19.8969 50.6131 18.4646 47.7099 17.8065 44.5163C17.5549 43.2776 17.4194 41.9809 17.4194 40.6454V32.9034V31.7615C17.4194 27.6776 19.5678 23.8841 23.0904 21.7938L25.4517 20.3809C25.7807 21.4647 26.3614 22.4131 27.1356 23.1873C28.3549 24.4067 30.0388 25.1615 31.9162 25.1615H48.3872C52.6646 25.1615 56.1291 28.626 56.1291 32.9034V40.6454C56.1291 41.9809 55.9936 43.2776 55.742 44.5163C55.084 47.7099 53.6517 50.6131 51.6581 53.0131L48.0581 45.7938C47.071 43.8196 45.0581 42.5809 42.871 42.5809Z" fill="#FFCCAA"></path> <path d="M17.8065 44.5162H15.4839C13.8775 44.5162 12.4259 43.8582 11.3807 42.813C10.3356 41.7678 9.67749 40.3162 9.67749 38.7098C9.67749 37.0453 10.3743 35.5549 11.4968 34.4904C12.5227 33.5227 13.9356 32.9033 15.4839 32.9033H17.4194V40.6453C17.4194 41.9807 17.5549 43.2775 17.8065 44.5162Z" fill="#FFCCAA"></path> <path d="M30.6775 42.5806H42.871C45.0581 42.5806 47.071 43.8193 48.0581 45.7935L51.6581 53.0128C49.8388 55.1999 47.5355 56.9806 44.9226 58.1806C42.4452 59.3612 39.6968 59.9999 36.7743 59.9999C33.8517 59.9999 31.1033 59.3612 28.6259 58.1806C26.5549 57.2322 24.6775 55.916 23.0904 54.329C22.6646 53.9031 22.2775 53.4773 21.8904 53.0128L25.4904 45.7935C26.4775 43.8193 28.4904 42.5806 30.6775 42.5806Z" fill="#CF9E76"></path> <path d="M29.0323 34.8387C30.1007 34.8387 30.9678 35.7078 30.9678 36.7742H34.8387C34.8387 33.5729 32.2336 30.9678 29.0323 30.9678C25.831 30.9678 23.2258 33.5729 23.2258 36.7742H27.0968C27.0968 35.7078 27.9639 34.8387 29.0323 34.8387Z" fill="#105074"></path> <path d="M44.5162 34.8387C45.5846 34.8387 46.4517 35.7078 46.4517 36.7742H50.3226C50.3226 33.5729 47.7175 30.9678 44.5162 30.9678C41.3149 30.9678 38.7097 33.5729 38.7097 36.7742H42.5807C42.5807 35.7078 43.4478 34.8387 44.5162 34.8387Z" fill="#105074"></path> <path d="M44.1076 49.6607L44.3108 49.2523L40.8483 47.52L40.645 47.9303C39.9076 49.4052 38.425 50.3226 36.7741 50.3226C35.1231 50.3226 33.6405 49.4052 32.9031 47.9303L32.6999 47.522L29.2373 49.2542L29.4405 49.6607C30.8379 52.4574 33.6483 54.1936 36.7741 54.1936C39.8999 54.1936 42.7102 52.4574 44.1076 49.6607Z" fill="#105074"></path> <path d="M75.4839 34.8387C76.5523 34.8387 77.4194 35.7078 77.4194 36.7742H81.2904C81.2904 33.5729 78.6852 30.9678 75.4839 30.9678C72.2827 30.9678 69.6775 33.5729 69.6775 36.7742H73.5485C73.5485 35.7078 74.4156 34.8387 75.4839 34.8387Z" fill="#105074"></path> <path d="M90.9678 30.9678C87.7665 30.9678 85.1614 33.5729 85.1614 36.7742H89.0323C89.0323 35.7078 89.8994 34.8387 90.9678 34.8387C92.0362 34.8387 92.9033 35.7078 92.9033 36.7742H96.7743C96.7743 33.5729 94.1691 30.9678 90.9678 30.9678Z" fill="#105074"></path> <path d="M89.0322 44.2028C88.196 46.7054 85.8638 48.3873 83.2257 48.3873C80.5876 48.3873 78.2554 46.7054 77.4193 44.197L77.3186 43.8989L73.6489 45.1338L73.7496 45.426C75.1102 49.5138 78.9173 52.2583 83.2257 52.2583C87.5341 52.2583 91.3412 49.5138 92.7018 45.4318L92.8025 45.1338L89.1328 43.8989L89.0322 44.2028Z" fill="#105074"></path> <path d="M111.01 66.5187C109.579 65.5645 108.054 64.8271 106.467 64.2677C110.212 59.3516 112.258 53.3729 112.258 47.1155V29.0323C112.258 13.0239 99.2342 0 83.2258 0C74.9555 0 67.0723 3.60387 61.5948 9.71806C57.4413 3.84968 50.6148 0 42.8942 0H30.6542C18.0213 0 7.74194 10.2794 7.74194 22.9123C7.74194 26.6845 8.30516 30.4142 9.36 34.0277C8.35935 35.3323 7.74194 36.9426 7.74194 38.7097C7.74194 42.9794 11.2142 46.4516 15.4839 46.4516H16.3084C17.8665 51.9329 21.5555 56.5181 26.4348 59.2413L25.4458 64.1903L15.3174 66.4394C10.98 67.4071 7.06064 69.8497 4.2871 73.3161C1.52323 76.7729 0 81.1123 0 85.5368V106.452C0 113.921 6.07935 120 13.5484 120H106.455C113.923 120 120.002 113.923 120.004 106.455L120.012 83.189C120.014 76.5097 116.698 70.3123 111.01 66.5187ZM116.141 83.1871L116.137 92.9032H108.387V81.2903H104.516V104.516H99.511L97.8561 102.861C96.4258 101.431 94.529 100.645 92.5084 100.645C91.2542 100.645 90.0619 100.963 89.0013 101.516C88.1226 100.372 87.0019 99.4006 85.6181 98.7097C84.6639 98.2335 84.2748 97.0665 84.7529 96.1123L86.1348 93.3503C86.7639 92.0923 87.0968 90.6832 87.0968 89.2723C87.0968 87.4645 86.5684 85.7168 85.5658 84.2148L84.5265 82.6548C83.6748 81.3794 83.2258 79.8948 83.2258 78.36V77.4193C83.2258 75.3793 82.9045 73.4148 82.3161 71.5684C82.6181 71.5897 82.92 71.6129 83.2258 71.6129C87.4916 71.6129 91.4535 69.4994 93.8342 65.9594L102.066 67.1361C104.506 67.4826 106.792 68.3594 108.995 69.8284C113.47 72.8129 116.143 77.8064 116.141 83.1871ZM42.0561 109.517C42.8516 108.776 43.709 108.103 44.6245 107.51C45.1452 111.271 48.3445 114.188 52.2445 114.194C52.4516 114.885 52.7671 115.527 53.1426 116.129H41.5065C42.1703 114.985 42.5806 113.675 42.5806 112.258C42.5806 111.29 42.3813 110.371 42.0561 109.517ZM56.129 104.007C57.3697 104.328 58.6606 104.516 60 104.516C61.3394 104.516 62.6303 104.328 63.871 104.007V104.516C63.871 106.651 62.1348 108.387 60 108.387C57.8652 108.387 56.129 106.651 56.129 104.516V104.007ZM67.7419 104.516V102.581C69.8768 102.581 71.6129 104.317 71.6129 106.452C71.6129 108.586 69.8768 110.323 67.7419 110.323C67.4342 110.323 67.0993 110.268 66.6871 110.15L65.5955 109.839C66.9174 108.449 67.7419 106.581 67.7419 104.516ZM60 100.645C53.5955 100.645 48.3871 95.4368 48.3871 89.0323V82.7826C48.3871 79.3452 50.6942 76.2832 54 75.3387L56.1523 74.7252C58.2252 76.6703 60.9077 77.9613 63.8458 78.2884L68.1677 78.7684C70.1323 78.9871 71.6129 80.6419 71.6129 82.6181V89.0323C71.6129 95.4368 66.4045 100.645 60 100.645ZM52.2581 102.581V104.516C52.2581 106.581 53.0826 108.449 54.4045 109.839L53.3129 110.15C52.9006 110.268 52.5658 110.323 52.2581 110.323C50.1232 110.323 48.3871 108.586 48.3871 106.452C48.3871 104.317 50.1232 102.581 52.2581 102.581ZM55.7806 111.975L55.7632 110.983C56.9826 111.784 58.4342 112.258 60 112.258C61.5658 112.258 63.0174 111.784 64.2368 110.983L64.2194 111.975C64.1768 114.265 62.2858 116.129 60 116.129C57.7142 116.129 55.8232 114.265 55.7806 111.975ZM67.7574 114.194C71.6574 114.186 74.8568 111.271 75.3774 107.51C76.2929 108.105 77.1484 108.776 77.9458 109.517C77.6187 110.373 77.4193 111.29 77.4193 112.258C77.4193 113.675 77.8297 114.985 78.4955 116.129H66.8594C67.2329 115.527 67.5503 114.885 67.7574 114.194ZM80.2219 106.345C78.4955 104.808 76.5271 103.545 74.4194 102.604C73.68 101.325 72.5942 100.289 71.28 99.6058C73.8794 96.8342 75.4839 93.1219 75.4839 89.0323V82.6181C75.4839 78.6677 72.5226 75.3581 68.5955 74.9206L64.2735 74.4406C60.331 74.0032 57.0348 71.1213 56.071 67.2716L52.3181 68.2123C52.6026 69.3523 53.0342 70.4303 53.5877 71.431L52.9394 71.6168C47.9787 73.0335 44.5161 77.6245 44.5161 82.7826V89.0323C44.5161 93.1219 46.1206 96.8342 48.72 99.6058C47.4058 100.289 46.32 101.325 45.5806 102.604C43.4729 103.545 41.5026 104.808 39.7781 106.345C38.4329 105.221 36.7258 104.516 34.8387 104.516H34.0916C34.0161 104.383 33.9252 104.261 33.8439 104.133C34.3858 103.328 35.1426 102.656 36.1123 102.172C37.5 101.479 38.5336 100.285 39.0252 98.8161C39.5148 97.3432 39.4026 95.7697 38.7097 94.3819L37.3277 91.62C36.9658 90.8961 36.7742 90.0832 36.7742 89.2723C36.7742 88.2329 37.0781 87.2245 37.6548 86.3613L38.6942 84.8013C39.9697 82.889 40.6452 80.6613 40.6452 78.36V77.4193C40.6452 68.8819 47.5916 61.9355 56.129 61.9355H63.871C72.4084 61.9355 79.3548 68.8819 79.3548 77.4193V78.36C79.3548 80.6594 80.0303 82.889 81.3058 84.8013L82.3452 86.3613C82.9219 87.2245 83.2258 88.2329 83.2258 89.2723C83.2258 90.0832 83.0342 90.8961 82.6723 91.62L81.2903 94.3819C80.5974 95.7697 80.4852 97.3432 80.9748 98.8161C81.4665 100.287 82.5 101.479 84.0213 102.24C84.8923 102.675 85.6219 103.334 86.1561 104.133C86.0729 104.263 85.9819 104.383 85.9064 104.516H85.1613C83.2742 104.516 81.5671 105.221 80.2219 106.345ZM54.6561 52.1574C55.0219 54.1819 55.6084 56.1639 56.4039 58.0645H56.129C52.949 58.0645 49.9548 58.8484 47.3071 60.2129L47.1135 59.2413C50.1716 57.5342 52.7613 55.0916 54.6561 52.1574ZM58.0645 40.6452V34.8387C60.1994 34.8387 61.9355 36.5748 61.9355 38.7097C61.9355 40.8445 60.1994 42.5806 58.0645 42.5806H57.9658C58.0239 41.9419 58.0645 41.2994 58.0645 40.6452ZM90.8187 63.509L90.6426 63.7723C88.9858 66.2574 86.2123 67.7419 83.2258 67.7419C82.2135 67.7419 81.2303 67.5368 80.2781 67.2019C79.111 65.3361 77.6458 63.6794 75.9329 62.309L76.7632 58.9897C78.8032 59.6419 80.9729 60 83.2258 60C85.4787 60 87.6484 59.6419 89.6884 58.9897L90.8187 63.509ZM60.6987 58.0645C59.0013 54.6677 58.0645 50.9187 58.0645 47.1155V46.4516C59.8684 46.4516 61.5077 45.8071 62.8258 44.7677C64.4535 50.2393 68.2181 54.7974 73.1555 57.4606L72.4916 60.1161C69.8923 58.8155 66.9716 58.0645 63.871 58.0645H60.6987ZM83.2258 56.129C73.62 56.129 65.8064 48.3135 65.8064 38.7097V31.0548C65.8064 26.1465 68.8742 21.7935 73.469 20.1329C76.2581 23.4813 80.3632 25.711 85.0123 26.0013L95.2026 26.6381C98.2548 26.8297 100.645 29.3768 100.645 32.4348V38.7097C100.645 48.3135 92.8316 56.129 83.2258 56.129ZM83.2258 3.87097C97.0994 3.87097 108.387 15.1587 108.387 29.0323V47.1155C108.387 53.1 106.212 58.7826 102.283 63.2555L94.4632 62.1406L93.2942 57.4626C99.9697 53.8626 104.516 46.8077 104.516 38.7097V32.4348C104.516 27.3368 100.531 23.0942 95.4426 22.7768L85.2523 22.14C78.689 21.7297 73.5484 16.2542 73.5484 9.67742L69.6774 9.67935C69.6774 12.2323 70.2697 14.6574 71.3245 16.8213C69.1181 17.7639 67.2194 19.1942 65.7077 20.9458C65.4755 18.2264 64.7594 15.6503 63.6561 13.2832C68.4155 7.38774 75.629 3.87097 83.2258 3.87097ZM15.4839 42.5806C13.349 42.5806 11.6129 40.8445 11.6129 38.7097C11.6129 36.5748 13.349 34.8387 15.4839 34.8387V40.6452C15.4839 41.2994 15.5245 41.9419 15.5826 42.5806H15.4839ZM15.5361 30.9677H15.4839C14.491 30.9677 13.5465 31.1729 12.6735 31.5155C11.9768 28.7032 11.6129 25.8194 11.6129 22.9123C11.6129 12.4123 20.1542 3.87097 30.6542 3.87097H42.8942C53.3942 3.87097 61.9355 12.4123 61.9355 22.9123C61.9355 25.8213 61.5716 28.7032 60.8748 31.5155C60.0019 31.1729 59.0574 30.9677 58.0645 30.9677H57.869C56.969 26.5568 53.0613 23.2258 48.3871 23.2258H31.9103C29.2568 23.2258 27.0968 21.0658 27.0968 18.4123C27.0968 16.3374 28.4206 14.5006 30.3852 13.8465L31.5774 13.4497L30.3561 9.77806L29.1619 10.1748C25.6103 11.3574 23.2258 14.669 23.2258 18.4123C23.2258 18.751 23.2452 19.0858 23.2819 19.4168L22.0994 20.1213C18.2477 22.4148 15.8032 26.5219 15.5361 30.9677ZM19.3548 31.7613C19.3548 28.3684 21.1665 25.1826 24.0794 23.4465L24.6174 23.1252C26.1697 25.5135 28.8581 27.0968 31.9103 27.0968H48.3871C51.5884 27.0968 54.1935 29.7019 54.1935 32.9032V40.6452C54.1935 43.7574 53.3632 46.6742 51.9271 49.2039L49.7864 44.9245C48.4684 42.2845 45.8148 40.6452 42.8632 40.6452H30.6871C27.7355 40.6452 25.0819 42.2845 23.7619 44.9245L21.6213 49.2039C20.1852 46.6742 19.3548 43.7574 19.3548 40.6452V31.7613ZM24.211 52.68L27.2226 46.6568C27.8826 45.3348 29.2103 44.5161 30.6852 44.5161H42.8613C44.3381 44.5161 45.6639 45.3348 46.3239 46.6548L49.3355 52.6781C46.1652 55.9916 41.7116 58.0645 36.7742 58.0645C31.8368 58.0645 27.3832 55.9916 24.211 52.68ZM36.7742 61.9355C39.12 61.9355 41.371 61.5387 43.4845 60.8361L43.8174 62.4987C42.0271 63.9794 40.5194 65.7832 39.3542 67.8097L36.7742 69.3561L29.2626 64.8484L30.0658 60.8361C32.1774 61.5387 34.4284 61.9355 36.7742 61.9355ZM26.7639 67.8639L33.391 71.8413L27.8729 76.2561L24.4916 68.369L26.7639 67.8639ZM3.87097 106.452V85.5368C3.87097 81.989 5.09226 78.5071 7.31032 75.7355C9.53419 72.9523 12.6774 70.9955 16.1574 70.2194L20.6477 69.2206L26.3187 82.4536L37.1226 73.8116C36.9019 74.9826 36.7742 76.1864 36.7742 77.4193V78.36C36.7742 79.8948 36.3252 81.3794 35.4735 82.6548L34.4342 84.2148C33.4316 85.7168 32.9032 87.4645 32.9032 89.2723C32.9032 90.6832 33.2361 92.0923 33.8652 93.3503L35.2471 96.1123C35.7252 97.0665 35.3361 98.2335 34.2465 98.7755C32.9516 99.4219 31.86 100.378 30.9948 101.514C29.9342 100.961 28.7439 100.643 27.4916 100.643C25.471 100.643 23.5742 101.429 22.1439 102.859L20.489 104.516H15.4839V81.2903H11.6129V104.516H7.74194V108.387H19.3548V116.129H13.5484C8.21226 116.129 3.87097 111.788 3.87097 106.452ZM23.2258 116.129V107.253L24.8806 105.598C25.5774 104.901 26.5045 104.516 27.4916 104.516C28.8987 104.516 30.1626 105.298 30.7916 106.554L31.7052 108.387H34.8387C36.9735 108.387 38.7097 110.123 38.7097 112.258C38.7097 114.393 36.9735 116.129 34.8387 116.129H23.2258ZM106.455 116.129H85.1613C83.0264 116.129 81.2903 114.393 81.2903 112.258C81.2903 110.123 83.0264 108.387 85.1613 108.387H88.2948L89.2084 106.558C89.8374 105.298 91.1013 104.516 92.5084 104.516C93.4955 104.516 94.4206 104.899 95.1194 105.598L97.9084 108.387H112.258V104.516H108.387V96.7742H116.137L116.133 106.455C116.131 111.79 111.79 116.129 106.455 116.129Z" fill="#105074"></path> <path d="M54.1935 87.0966C55.2625 87.0966 56.129 86.23 56.129 85.1611C56.129 84.0921 55.2625 83.2256 54.1935 83.2256C53.1246 83.2256 52.2581 84.0921 52.2581 85.1611C52.2581 86.23 53.1246 87.0966 54.1935 87.0966Z" fill="#105074"></path> <path d="M65.8063 87.0966C66.8753 87.0966 67.7418 86.23 67.7418 85.1611C67.7418 84.0921 66.8753 83.2256 65.8063 83.2256C64.7374 83.2256 63.8708 84.0921 63.8708 85.1611C63.8708 86.23 64.7374 87.0966 65.8063 87.0966Z" fill="#105074"></path> <path d="M63.8709 90.5109C63.1335 91.9858 61.6509 92.9032 59.9999 92.9032C58.3489 92.9032 56.8664 91.9858 56.1289 90.5109L55.9257 90.1025L52.4631 91.8348L52.6664 92.2432C54.0638 95.038 56.8741 96.7741 59.9999 96.7741C63.1257 96.7741 65.936 95.038 67.3335 92.2412L67.5367 91.8328L64.0741 90.1006L63.8709 90.5109Z" fill="#105074"></path> </svg> 