<?xml version="1.0" encoding="UTF-8"?> <svg xmlns="http://www.w3.org/2000/svg" width="130" height="120" viewBox="0 0 130 120" fill="none"> <path d="M91.7841 1.91846H104.395C107.52 1.91846 110.347 3.79257 111.588 6.6878L112.394 8.56754H116.2C122.656 8.56754 127.889 13.8494 127.889 20.3651V63.749C127.889 68.3771 124.172 72.1291 119.586 72.1291H77.6475C73.062 72.1291 69.3445 68.3773 69.3445 63.749V24.5665C69.3445 12.0584 79.3911 1.91846 91.7841 1.91846Z" fill="#444567" fill-opacity="0.65"></path> <path d="M116.2 8.56755H112.394L111.589 6.6878C110.347 3.79257 107.521 1.91846 104.395 1.91846H97.863C100.989 1.91846 103.816 3.79257 105.057 6.6878L105.863 8.56755H109.668C116.124 8.56755 121.357 13.8494 121.357 20.3652V63.749C121.357 68.3771 117.64 72.1289 113.054 72.1289H119.586C124.172 72.1289 127.889 68.3771 127.889 63.749V20.3652C127.889 13.8496 122.656 8.56755 116.2 8.56755Z" fill="#105074"></path> <path d="M52.5514 8.64507L28.636 2.90321C26.0866 2.2912 23.4051 3.05749 21.552 4.92778L14.7512 11.7916H11.869C7.70045 11.7916 4.32108 15.2023 4.32108 19.4096C4.32108 19.4096 3.94033 28.7562 4.32108 31.84C4.77332 35.5038 7.91161 46.1576 7.91161 46.1576H58.9193L68.4776 7.97858C68.9674 6.02002 66.7138 4.55269 65.1477 5.81047C61.6033 8.65812 56.9585 9.70303 52.5514 8.64507Z" fill="#F6E1AE"></path> <path d="M65.1477 5.81062C64.1527 6.6099 63.0688 7.26181 61.9298 7.77045C61.9191 7.83978 61.9126 7.90809 61.8948 7.97871L52.3364 46.1575H58.919L68.4774 7.97871C68.9674 6.01991 66.7138 4.5526 65.1477 5.81062Z" fill="#F9DD99"></path> <path d="M112.668 78.6768H84.5638H11.5022V94.0932H80.1005V118.082H126.264V92.3984C126.264 84.82 120.177 78.6768 112.668 78.6768Z" fill="#6DA3C1"></path> <path d="M112.669 78.6768H106.849C114.357 78.6768 120.444 84.82 120.444 92.3984V118.082H126.264V92.3984C126.264 84.82 120.177 78.6768 112.669 78.6768Z" fill="#4F8EB0"></path> <path d="M68.5439 94.0931V92.3983C68.5439 84.8203 62.4575 78.6773 54.9494 78.6768H26.8434C19.3354 78.677 13.2489 84.8203 13.2489 92.3983V94.0931H68.5439Z" fill="#326480"></path> <path d="M90.4252 64.8896V81.5541C90.4252 86.1201 98.6164 90.7275 98.6164 90.7275C98.6164 90.7275 106.808 86.1201 106.808 81.5541V64.8896H90.4252Z" fill="#F6B391"></path> <path d="M127.238 44.9908V47.425C127.238 50.2668 124.958 52.571 122.142 52.571H120.413C119.722 65.9948 107.386 75.3178 95.282 73.1909H95.279C85.1776 71.6266 77.3593 63.0711 76.8206 52.571H75.0913C72.2757 52.571 69.9927 50.2668 69.9927 47.425V44.9908C69.9927 42.1491 72.2757 39.8449 75.0913 39.8449H76.7877V28.6772C76.7877 28.3781 76.7937 28.0823 76.8087 27.7894C79.8007 28.3722 82.8916 28.6741 86.0512 28.6741C95.6798 28.6741 104.656 25.8595 112.217 20.9975C113.875 19.9345 115.467 18.7719 116.981 17.5156C119.112 20.5562 120.442 24.505 120.442 28.6772V39.8449H122.142C124.958 39.8449 127.238 42.1493 127.238 44.9908Z" fill="#FFCCAA"></path> <path d="M122.142 39.8449H120.442V35.2859H120.44C120.439 27.7165 120.438 28.3095 120.436 28.2031C120.339 24.189 119.02 20.4252 116.98 17.5156C115.466 18.7719 113.875 19.9345 112.217 20.9975C113.213 23.356 113.767 25.9501 113.767 28.6772V39.8449L113.734 52.571C113.435 58.3842 110.906 63.6057 106.99 67.3715C103.836 70.4065 99.7847 72.4904 95.2816 73.1909C106.326 75.1315 117.561 67.5386 119.969 55.9963C119.97 55.9956 119.97 55.9948 119.97 55.994C120.084 55.4455 120.179 54.8885 120.253 54.3226C120.255 54.3054 120.257 54.288 120.259 54.2709C120.29 54.0311 120.316 53.7899 120.339 53.5473C120.345 53.4864 120.351 53.4258 120.356 53.3649C120.379 53.1016 120.399 52.8373 120.413 52.5707H120.443H122.142C124.958 52.5707 127.238 50.2665 127.238 47.4248V44.9906C127.237 42.1494 124.958 39.8449 122.142 39.8449Z" fill="#F6B391"></path> <path d="M61.0632 118.082H5.76807V92.3984C5.76807 84.82 11.8548 78.6768 19.3634 78.6768H47.4679C54.9765 78.6768 61.0632 84.82 61.0632 92.3984V118.082Z" fill="#F2543B"></path> <path d="M47.4674 78.6768H41.6476C49.1562 78.6768 55.2429 84.82 55.2429 92.3984V118.082H61.0627V92.3984C61.0627 84.82 54.976 78.6768 47.4674 78.6768Z" fill="#E34128"></path> <path d="M25.2249 64.8896V81.554C25.2249 86.12 28.8922 89.8214 33.4161 89.8214C37.94 89.8214 41.6073 86.12 41.6073 81.554V64.8896H25.2249Z" fill="#F6B391"></path> <path d="M62.0399 44.9915V47.4257C62.0399 50.2674 59.7569 52.5716 56.9413 52.5716H55.212C54.9836 56.8315 53.5292 60.8387 51.4749 63.7905C51.4749 63.7935 51.4719 63.7935 51.4719 63.7966C47.3642 70.1732 38.9065 74.5378 30.0813 73.1915H30.0782C19.9769 71.6272 12.1585 63.0718 11.6198 52.5716H9.89047C7.07488 52.5716 4.79492 50.2674 4.79492 47.4257V44.9915C4.79492 42.1497 7.07488 39.8455 9.89047 39.8455H11.5899V31.746C17.4454 31.3474 19.3396 29.5355 19.3396 23.71C19.3396 23.71 26.7899 37.1033 48.5665 33.111C50.6581 32.7275 52.8811 32.1838 55.2449 31.4531V39.8453H56.9413C59.7569 39.8455 62.0399 42.15 62.0399 44.9915Z" fill="#FFCCAA"></path> <path d="M56.9407 39.8451H55.2443V38.3059V31.4526C52.8804 32.1834 50.6573 32.727 48.5659 33.1106V39.8449L48.533 52.571C48.2339 58.3842 45.7055 63.6057 41.7887 67.3716C38.6349 70.4065 34.5866 72.4904 30.0804 73.191C38.9026 74.5367 47.3786 70.1489 51.471 63.796C51.471 63.793 51.474 63.793 51.474 63.7899C52.7922 62.0962 54.2019 58.9128 54.859 55.4186H54.8712C54.988 54.7805 55.078 54.1317 55.1411 53.476C55.1437 53.4499 55.1467 53.424 55.1492 53.3979C55.1746 53.1234 55.1964 52.8478 55.2113 52.571H55.2443H56.9407C59.7563 52.571 62.0393 50.2668 62.0393 47.425V44.9908C62.0393 42.1496 59.7563 39.8451 56.9407 39.8451Z" fill="#F6B391"></path> <path d="M11.2694 96.3211H6.63927C4.02192 96.3211 1.90015 94.1796 1.90015 91.5379V81.0981C1.90015 78.4564 4.02192 76.3149 6.63927 76.3149H11.2694C13.1924 76.3149 14.7512 77.8882 14.7512 79.8291V92.807C14.7512 94.7479 13.1922 96.3211 11.2694 96.3211Z" fill="#FFCCAA"></path> <path d="M88.6624 53.9337C89.201 55.2806 89.9942 56.4882 91.0214 57.5247C93.0534 59.571 95.7509 60.6978 98.6169 60.6978C103.013 60.6978 106.919 58.0438 108.57 53.9368C108.965 52.9548 108.496 51.8357 107.523 51.4373C106.549 51.039 105.441 51.5123 105.046 52.4943C103.98 55.1462 101.457 56.86 98.6169 56.86C96.7649 56.86 95.0211 56.131 93.7085 54.8093C93.0463 54.141 92.535 53.3632 92.1888 52.4971C91.7956 51.5146 90.6878 51.039 89.7139 51.4361C88.7399 51.8326 88.2694 52.9507 88.6624 53.9337Z" fill="#105074"></path> <path d="M87.69 43.1915C88.7403 43.1915 89.5913 42.3324 89.5913 41.2726V40.2085C89.5913 39.1487 88.7403 38.2896 87.69 38.2896C86.6398 38.2896 85.7888 39.1487 85.7888 40.2085V41.2726C85.7888 42.3324 86.6398 43.1915 87.69 43.1915Z" fill="#105074"></path> <path d="M109.543 43.1915C110.593 43.1915 111.444 42.3324 111.444 41.2726V40.2085C111.444 39.1487 110.593 38.2896 109.543 38.2896C108.492 38.2896 107.641 39.1487 107.641 40.2085V41.2726C107.641 42.3324 108.492 43.1915 109.543 43.1915Z" fill="#105074"></path> <path d="M33.416 60.6964C37.8116 60.6964 41.7185 58.0425 43.369 53.9356C43.7637 52.9537 43.2948 51.8346 42.3218 51.4362C41.3482 51.0378 40.2401 51.5112 39.8452 52.4931C38.7795 55.145 36.2559 56.8587 33.416 56.8587C31.5639 56.8587 29.8201 56.1298 28.5075 54.8083C27.8451 54.1395 27.3336 53.3617 26.9878 52.4964C26.5949 51.5137 25.4873 51.0381 24.5134 51.4349C23.5395 51.8315 23.0687 52.9496 23.4616 53.9323C23.9998 55.2786 24.7928 56.4862 25.8204 57.5236C27.8527 59.5697 30.5502 60.6964 33.416 60.6964Z" fill="#105074"></path> <path d="M24.3905 41.2726V40.2085C24.3905 39.1487 23.5395 38.2896 22.4892 38.2896C21.439 38.2896 20.588 39.1487 20.588 40.2085V41.2726C20.588 42.3324 21.439 43.1915 22.4892 43.1915C23.5395 43.1915 24.3905 42.3324 24.3905 41.2726Z" fill="#105074"></path> <path d="M44.3428 43.1915C45.3931 43.1915 46.244 42.3324 46.244 41.2726V40.2085C46.244 39.1487 45.3931 38.2896 44.3428 38.2896C43.2926 38.2896 42.4417 39.1487 42.4417 40.2085V41.2726C42.4417 42.3324 43.2926 43.1915 44.3428 43.1915Z" fill="#105074"></path> <path d="M127.889 27.6091C128.94 27.6091 129.791 26.7499 129.791 25.6902V20.3659C129.791 12.8026 123.694 6.64961 116.201 6.64961H113.645L113.334 5.92555C111.79 2.32596 108.282 0 104.395 0H91.7837C78.3621 0 67.4427 11.0206 67.4427 24.567V63.7482C67.4427 69.4282 72.0211 74.0489 77.6485 74.0489H88.5235V76.7584H47.4699H43.5077V73.0961C45.79 72.0125 47.9087 70.5596 49.7792 68.7609C53.752 64.9413 56.2586 59.9281 56.9489 54.4897C60.8053 54.4859 63.9414 51.3182 63.9414 47.4248V44.9907C63.9414 43.268 63.3259 41.6886 62.3073 40.4613L66.6829 22.9825C66.9402 21.955 66.3235 20.9116 65.3052 20.6519C64.2887 20.3932 63.2534 21.0147 62.9963 22.0422L58.9457 38.2226C58.3728 38.0494 57.7702 37.947 57.1464 37.9289V31.4525C57.1464 30.8438 56.8602 30.2712 56.3752 29.9094C55.8903 29.5477 55.2634 29.4392 54.6874 29.618C44.2685 32.8441 35.137 32.6737 28.2807 29.124C23.1443 26.4646 21.0136 22.7983 20.9977 22.7701C20.5743 22.009 19.6944 21.6323 18.8587 21.8531C18.0219 22.0739 17.4383 22.8369 17.4383 23.7096C17.4383 28.4628 16.433 29.4926 11.4621 29.8311C10.4639 29.8992 9.68892 30.7361 9.68892 31.7457V37.9291C8.99585 37.9491 8.32789 38.0719 7.69871 38.282C6.87763 35.1414 6.35644 32.8111 6.2084 31.6042C5.91257 29.203 6.11765 22.0438 6.22158 19.488C6.22259 19.4617 6.2231 19.4356 6.2231 19.4092C6.2231 16.2674 8.75554 13.7114 11.8687 13.7114H14.751C15.2552 13.7114 15.7386 13.5093 16.0955 13.1493L22.8964 6.28476C24.2736 4.89497 26.3044 4.31496 28.1975 4.77088L52.1117 10.512C53.3718 10.8149 54.6679 10.9684 55.9643 10.9684C59.7158 10.9684 63.3981 9.66969 66.3329 7.31176C66.3803 7.27363 66.4393 7.22553 66.5544 7.30076C66.6693 7.37546 66.6507 7.44915 66.636 7.50774L65.1962 13.2593C64.9389 14.2868 65.5556 15.3302 66.5739 15.5899C67.5917 15.8496 68.626 15.2271 68.8828 14.1996L70.3229 8.44749C70.7488 6.74402 70.0783 5.02802 68.6153 4.07573C67.1516 3.12294 65.326 3.21504 63.9644 4.30984C61.6999 6.12921 58.8587 7.13112 55.9641 7.13112C54.964 7.13112 53.964 7.01267 52.9918 6.77907L29.0787 1.03723C25.911 0.27453 22.5121 1.24523 20.2078 3.57068L13.9636 9.87335H11.8687C6.67281 9.87335 2.44295 14.1287 2.42064 19.3678C2.39099 20.1123 2.04851 28.941 2.43509 32.0765C2.62978 33.6653 3.28659 36.5439 4.38702 40.6355C3.45288 41.8365 2.89392 43.3486 2.89392 44.9909V47.4251C2.89392 51.3179 6.02816 54.4856 9.88259 54.49C10.9323 62.7839 16.1579 69.694 23.324 73.0945V76.7584H19.3646C18.2031 76.7584 17.0586 76.8881 15.9429 77.1421C15.0149 75.5044 13.2701 74.3958 11.2705 74.3958H6.64036C2.97885 74.3958 0 77.4023 0 81.0979V91.5374C0 94.2346 1.58765 96.5631 3.86837 97.6252V118.081C3.86837 119.141 4.71936 120 5.7696 120H61.0649C62.1152 120 62.9662 119.141 62.9662 118.081V92.3986C62.9662 87.6909 60.8918 83.4658 57.6207 80.5961H88.5237V81.553C88.5237 87.0876 96.7543 91.8762 97.6927 92.404C97.9805 92.5657 98.2994 92.6468 98.618 92.6468C98.9371 92.6468 99.2561 92.5659 99.5435 92.404C100.482 91.8762 108.709 87.0874 108.709 81.553V80.5961H112.669C119.117 80.5961 124.363 85.8908 124.363 92.3986V116.162H119.034V103.306C119.034 102.246 118.183 101.387 117.133 101.387C116.082 101.387 115.231 102.246 115.231 103.306V116.162H82.0038V94.0924C82.0038 93.0326 81.1528 92.1735 80.1026 92.1735H68.6977C67.6475 92.1735 66.7965 93.0326 66.7965 94.0924C66.7965 95.1521 67.6475 96.0113 68.6977 96.0113H78.2013V118.081C78.2013 119.141 79.0523 120 80.1026 120H126.264C127.315 120 128.166 119.141 128.166 118.081V92.3986C128.166 83.7746 121.214 76.7584 112.669 76.7584H108.71V74.0489H119.587C125.213 74.0489 129.791 69.4279 129.791 63.7482V34.7499C129.791 33.6902 128.94 32.831 127.889 32.831C126.839 32.831 125.988 33.6902 125.988 34.7499V39.093C124.936 38.3915 123.688 37.9672 122.345 37.9286V28.677C122.345 24.2669 121.03 20.0284 118.542 16.4196C118.239 15.98 117.768 15.6884 117.243 15.6147C116.717 15.5407 116.186 15.6925 115.775 16.032C107.426 22.9469 96.8699 26.755 86.0521 26.755C83.0543 26.755 80.0658 26.469 77.1696 25.9048C76.6302 25.7999 76.0702 25.9358 75.637 26.2784C75.2037 26.621 74.9388 27.1362 74.9107 27.6909C74.8947 28.0031 74.8871 28.3257 74.8871 28.677V37.9289C73.5446 37.968 72.2969 38.3922 71.2454 39.0933V24.567C71.2454 13.137 80.459 3.83779 91.784 3.83779H104.395C106.765 3.83779 108.904 5.25573 109.845 7.44992L110.651 9.33043C110.952 10.0328 111.638 10.4874 112.396 10.4874H116.201C121.598 10.4874 125.988 14.9188 125.988 20.3659V25.6902C125.988 26.7499 126.839 27.6091 127.889 27.6091ZM13.5188 52.4718C13.4665 51.452 12.632 50.6519 11.6201 50.6519H9.8907C8.1294 50.6519 6.69638 49.2043 6.69638 47.4248V44.9907C6.69638 43.2112 8.12915 41.7636 9.8907 41.7636H11.5904C12.6406 41.7636 13.4916 40.9044 13.4916 39.8447V33.4763C17.4538 32.9055 19.6838 31.3476 20.6527 28.3109C22.0074 29.6321 23.8635 31.115 26.2983 32.4089C35.1758 37.126 45.5119 36.0704 53.3439 33.9936V39.8447C53.3439 40.9044 54.1949 41.7636 55.2451 41.7636H56.9415C58.7044 41.7636 60.1387 43.2112 60.1387 44.9907V47.4248C60.1387 49.2043 58.7044 50.6519 56.9415 50.6519H55.2122C54.2005 50.6519 53.366 51.4515 53.3135 52.4713C53.0483 57.6213 50.8617 62.4196 47.1566 65.9821C45.3136 67.7541 43.1855 69.1304 40.8828 70.0693C40.8708 70.0742 40.8592 70.0793 40.8473 70.0847C38.512 71.0316 35.9979 71.5287 33.4175 71.5287C30.7956 71.5287 28.2888 71.016 25.9908 70.0852C25.9551 70.0693 25.9181 70.0555 25.8813 70.0417C18.9352 67.18 13.9287 60.4756 13.5188 52.4718ZM33.4178 75.3665C35.5679 75.3665 37.678 75.071 39.7053 74.5107V78.6772V81.553C39.7053 83.2496 39.0515 84.8438 37.8639 86.0422C36.6767 87.2406 35.0972 87.9005 33.416 87.9005C29.9479 87.9005 27.1265 85.0531 27.1265 81.5528V78.6772V74.512C29.1324 75.0667 31.2412 75.3665 33.4178 75.3665ZM3.80246 81.0979C3.80246 79.5185 5.07552 78.2336 6.64036 78.2336H11.2705C12.142 78.2336 12.8508 78.9492 12.8508 79.8288V92.8067C12.8508 93.6863 12.1418 94.4019 11.2705 94.4019H6.64036C5.07552 94.4019 3.80246 93.1171 3.80246 91.5377V81.0979ZM59.1637 92.3986V116.162H53.8334V103.306C53.8334 102.246 52.9824 101.387 51.9322 101.387C50.882 101.387 50.031 102.246 50.031 103.306V116.162H16.802V103.306C16.802 102.246 15.9511 101.387 14.9008 101.387C13.8506 101.387 12.9996 102.246 12.9996 103.306V116.162H7.67082V98.2397H11.2705C14.2387 98.2397 16.6532 95.8025 16.6532 92.8067V80.9167C17.5349 80.7054 18.4419 80.5961 19.3644 80.5961H23.324V81.553C23.324 87.1693 27.8512 91.7385 33.416 91.7385C36.113 91.7385 38.6474 90.6793 40.5527 88.7561C42.4582 86.8328 43.5075 84.2748 43.5075 81.553V80.5961H47.4696C53.9178 80.5961 59.1637 85.8908 59.1637 92.3986ZM104.907 81.553C104.907 83.6802 101.486 86.6854 98.618 88.4974C95.7482 86.6849 92.3262 83.6799 92.3262 81.553V74.512C94.3316 75.0667 96.4399 75.3662 98.616 75.3662C100.768 75.3662 102.879 75.0705 104.907 74.5099V81.553ZM125.988 63.7482C125.988 67.312 123.117 70.2111 119.587 70.2111H113.324C113.895 69.7552 114.448 69.2724 114.981 68.7604C118.953 64.9385 121.46 59.925 122.15 54.4897C123.567 54.4882 124.886 54.0581 125.988 53.323V63.7482ZM71.8946 44.9907C71.8946 43.2112 73.3289 41.7636 75.0917 41.7636H76.7881C77.8383 41.7636 78.6893 40.9044 78.6893 39.8447V30.056C81.1123 30.4127 83.5798 30.5931 86.0519 30.5931C97.021 30.5931 107.741 26.971 116.479 20.3526C117.834 22.9009 118.542 25.7424 118.542 28.6772V39.845C118.542 40.9047 119.393 41.7638 120.443 41.7638H122.143C123.904 41.7638 125.337 43.2115 125.337 44.9909V47.4251C125.337 49.2046 123.904 50.6522 122.143 50.6522H120.413C119.402 50.6522 118.567 51.4517 118.515 52.4715C118.25 57.6188 116.063 62.4173 112.358 65.9823C110.524 67.7457 108.407 69.1165 106.116 70.0553C106.083 70.0686 106.05 70.0829 106.017 70.0983C103.69 71.037 101.185 71.529 98.6157 71.529C95.9948 71.529 93.4887 71.0165 91.1916 70.086C91.1548 70.0696 91.117 70.0555 91.0792 70.0415C84.1349 67.1795 79.1296 60.4754 78.72 52.472C78.6678 51.4522 77.8333 50.6522 76.8213 50.6522H75.0919C73.3291 50.6522 71.8948 49.2046 71.8948 47.4251L71.8946 44.9907ZM75.0838 54.4897C75.8915 60.8722 79.173 66.435 83.9065 70.2111H77.6487C74.1178 70.2111 71.2454 67.3118 71.2454 63.7482V53.3233C72.3478 54.0581 73.6668 54.4882 75.0838 54.4897Z" fill="#105074"></path> </svg> 