<?xml version="1.0" encoding="UTF-8"?> <svg xmlns="http://www.w3.org/2000/svg" width="56" height="56" viewBox="0 0 56 56" fill="none"> <path d="M42.2188 5.79688C42.2188 6.401 41.7291 6.89062 41.125 6.89062C40.5209 6.89062 40.0312 6.401 40.0312 5.79688C40.0312 5.19275 40.5209 4.70312 41.125 4.70312C41.7291 4.70312 42.2188 5.19275 42.2188 5.79688Z" fill="#F6E1AE"></path> <path d="M41.125 11.5938H14.875C11.8595 11.5938 9.40625 14.047 9.40625 17.0625V43.3125C9.40625 46.328 11.8595 48.7812 14.875 48.7812H41.125C44.1405 48.7812 46.5938 46.328 46.5938 43.3125V17.0625C46.5938 14.047 44.1405 11.5938 41.125 11.5938ZM44.4062 43.3125C44.4062 45.1219 42.9344 46.5938 41.125 46.5938H14.875C13.0656 46.5938 11.5938 45.1219 11.5938 43.3125V17.0625C11.5938 15.2531 13.0656 13.7812 14.875 13.7812H41.125C42.9344 13.7812 44.4062 15.2531 44.4062 17.0625V43.3125Z" fill="#F6E1AE"></path> <path d="M28 20.3438C22.5723 20.3438 18.1562 24.7598 18.1562 30.1875C18.1562 35.6152 22.5723 40.0312 28 40.0312C33.4277 40.0312 37.8438 35.6152 37.8438 30.1875C37.8438 24.7598 33.4277 20.3438 28 20.3438ZM28 37.8438C23.7784 37.8438 20.3438 34.4091 20.3438 30.1875C20.3438 25.9659 23.7784 22.5312 28 22.5312C32.2216 22.5312 35.6562 25.9659 35.6562 30.1875C35.6562 34.4091 32.2216 37.8438 28 37.8438Z" fill="#F6E1AE"></path> <path d="M38.9375 15.9688C37.1281 15.9688 35.6562 17.4406 35.6562 19.25C35.6562 21.0594 37.1281 22.5312 38.9375 22.5312C40.7469 22.5312 42.2188 21.0594 42.2188 19.25C42.2188 17.4406 40.7469 15.9688 38.9375 15.9688ZM38.9375 20.3438C38.3342 20.3438 37.8438 19.8533 37.8438 19.25C37.8438 18.6467 38.3342 18.1562 38.9375 18.1562C39.5408 18.1562 40.0312 18.6467 40.0312 19.25C40.0312 19.8533 39.5408 20.3438 38.9375 20.3438Z" fill="#F6E1AE"></path> <path d="M50.5312 0H5.46875C2.45325 0 0 2.45325 0 5.46875V50.5312C0 53.5468 2.45325 56 5.46875 56H50.5312C53.5468 56 56 53.5468 56 50.5312V5.46875C56 2.45325 53.5468 0 50.5312 0ZM53.8125 50.5312C53.8125 52.3406 52.3406 53.8125 50.5312 53.8125H5.46875C3.65936 53.8125 2.1875 52.3406 2.1875 50.5312V5.46875C2.1875 3.65936 3.65936 2.1875 5.46875 2.1875H50.5312C52.3406 2.1875 53.8125 3.65936 53.8125 5.46875V50.5312Z" fill="#F6E1AE"></path> <path d="M14.875 6.89062H36.75C37.3541 6.89062 37.8438 6.401 37.8438 5.79688C37.8438 5.19275 37.3541 4.70312 36.75 4.70312H14.875C14.2709 4.70312 13.7812 5.19275 13.7812 5.79688C13.7812 6.401 14.2709 6.89062 14.875 6.89062Z" fill="#F6E1AE"></path> </svg> 