<?xml version="1.0" encoding="UTF-8"?> <svg xmlns="http://www.w3.org/2000/svg" width="292" height="309" viewBox="0 0 292 309" fill="none"> <g clip-path="url(#clip0)"> <path d="M213.786 96.7762L210.289 93.0259C210.237 92.9705 210.174 92.9264 210.105 92.8962C210.035 92.866 209.96 92.8504 209.884 92.8504C209.808 92.8504 209.732 92.866 209.663 92.8962C209.593 92.9264 209.53 92.9705 209.478 93.0259L205.982 96.7762C205.93 96.832 205.867 96.8765 205.797 96.907C205.727 96.9374 205.651 96.9531 205.575 96.9531C205.498 96.9531 205.423 96.9374 205.353 96.907C205.283 96.8765 205.22 96.832 205.168 96.7762L201.671 93.0259C201.619 92.9701 201.557 92.9255 201.487 92.8951C201.417 92.8646 201.341 92.8489 201.265 92.8489C201.188 92.8489 201.113 92.8646 201.043 92.8951C200.973 92.9255 200.91 92.9701 200.858 93.0259L197.361 96.7762C197.309 96.8316 197.247 96.8757 197.177 96.9059C197.107 96.9361 197.032 96.9517 196.956 96.9517C196.88 96.9517 196.805 96.9361 196.735 96.9059C196.665 96.8757 196.602 96.8316 196.55 96.7762L193.051 93.0259C192.999 92.9705 192.936 92.9264 192.867 92.8962C192.797 92.866 192.722 92.8504 192.646 92.8504C192.57 92.8504 192.494 92.866 192.425 92.8962C192.355 92.9264 192.292 92.9705 192.24 93.0259L188.744 96.7762C188.692 96.832 188.629 96.8765 188.559 96.907C188.489 96.9374 188.413 96.9531 188.337 96.9531C188.26 96.9531 188.185 96.9374 188.115 96.907C188.045 96.8765 187.982 96.832 187.93 96.7762L184.433 93.0259C184.381 92.9705 184.319 92.9264 184.249 92.8962C184.179 92.866 184.104 92.8504 184.028 92.8504C183.952 92.8504 183.877 92.866 183.807 92.8962C183.737 92.9264 183.674 92.9705 183.623 93.0259L180.531 96.3521C180.48 96.4075 180.417 96.4516 180.347 96.4818C180.277 96.512 180.202 96.5276 180.126 96.5276C180.05 96.5276 179.975 96.512 179.905 96.4818C179.835 96.4516 179.773 96.4075 179.721 96.3521V96.3521C179.61 96.2332 179.549 96.0774 179.549 95.9155C179.549 95.7537 179.61 95.5978 179.721 95.479L183.609 91.2935C183.661 91.2381 183.723 91.194 183.793 91.1638C183.863 91.1336 183.938 91.118 184.014 91.118C184.09 91.118 184.165 91.1336 184.235 91.1638C184.305 91.194 184.368 91.2381 184.42 91.2935L187.916 95.0438C187.968 95.0996 188.031 95.1441 188.101 95.1746C188.171 95.205 188.247 95.2207 188.323 95.2207C188.399 95.2207 188.475 95.205 188.545 95.1746C188.615 95.1441 188.678 95.0996 188.73 95.0438L192.226 91.2935C192.278 91.2381 192.341 91.194 192.411 91.1638C192.48 91.1336 192.556 91.118 192.632 91.118C192.708 91.118 192.783 91.1336 192.853 91.1638C192.922 91.194 192.985 91.2381 193.037 91.2935L196.536 95.0438C196.588 95.0992 196.651 95.1433 196.721 95.1735C196.791 95.2037 196.866 95.2193 196.942 95.2193C197.018 95.2193 197.093 95.2037 197.163 95.1735C197.233 95.1433 197.295 95.0992 197.347 95.0438L200.844 91.2935C200.896 91.2377 200.959 91.1931 201.029 91.1627C201.099 91.1322 201.174 91.1165 201.251 91.1165C201.327 91.1165 201.403 91.1322 201.473 91.1627C201.543 91.1931 201.606 91.2377 201.658 91.2935L205.154 95.0438C205.206 95.0996 205.269 95.1441 205.339 95.1746C205.409 95.205 205.485 95.2207 205.561 95.2207C205.637 95.2207 205.713 95.205 205.783 95.1746C205.853 95.1441 205.916 95.0996 205.968 95.0438L209.486 91.2824C209.538 91.227 209.601 91.1829 209.671 91.1527C209.741 91.1225 209.816 91.1069 209.892 91.1069C209.968 91.1069 210.043 91.1225 210.113 91.1527C210.183 91.1829 210.245 91.227 210.297 91.2824L213.794 95.0327C213.846 95.0885 213.909 95.133 213.979 95.1635C214.049 95.1939 214.124 95.2097 214.201 95.2097C214.277 95.2097 214.353 95.1939 214.423 95.1635C214.493 95.133 214.556 95.0885 214.608 95.0327L217.699 91.7065C217.751 91.6511 217.813 91.607 217.883 91.5768C217.953 91.5466 218.028 91.531 218.104 91.531C218.18 91.531 218.255 91.5466 218.325 91.5768C218.395 91.607 218.458 91.6511 218.51 91.7065V91.7065C218.617 91.826 218.677 91.981 218.677 92.1417C218.677 92.3023 218.617 92.4573 218.51 92.5769L214.608 96.7651C214.556 96.823 214.494 96.8695 214.423 96.9017C214.353 96.9339 214.276 96.9511 214.199 96.9521C214.122 96.9532 214.045 96.9381 213.974 96.9078C213.902 96.8775 213.838 96.8326 213.786 96.7762Z" fill="#F2543B"></path> <path d="M176.049 212.86L175.899 212.708C175.837 212.646 175.787 212.572 175.753 212.491C175.719 212.409 175.702 212.322 175.702 212.234C175.702 212.146 175.719 212.059 175.753 211.977C175.787 211.896 175.837 211.822 175.899 211.76L182.056 205.612C182.183 205.487 182.353 205.417 182.531 205.417C182.709 205.417 182.88 205.487 183.006 205.612C183.025 205.633 183.047 205.651 183.07 205.667L183.717 206.144L183.636 206.238L176.993 212.86C176.868 212.984 176.698 213.054 176.521 213.054C176.345 213.054 176.175 212.984 176.049 212.86Z" fill="#F6B391"></path> <path d="M166.573 216.818L166.423 216.669C166.361 216.606 166.311 216.532 166.277 216.451C166.243 216.369 166.225 216.282 166.225 216.193C166.225 216.105 166.243 216.018 166.277 215.936C166.311 215.854 166.361 215.78 166.423 215.718L187.983 194.181C188.045 194.118 188.119 194.069 188.201 194.035C188.283 194.001 188.37 193.983 188.459 193.983C188.547 193.983 188.635 194.001 188.717 194.035C188.799 194.069 188.873 194.118 188.935 194.181L189.085 194.331C189.148 194.393 189.198 194.467 189.232 194.549C189.266 194.63 189.283 194.718 189.283 194.806C189.283 194.894 189.266 194.982 189.232 195.063C189.198 195.145 189.148 195.219 189.085 195.281L167.526 216.818C167.463 216.881 167.389 216.931 167.308 216.965C167.226 216.998 167.138 217.016 167.05 217.016C166.961 217.016 166.873 216.998 166.792 216.965C166.71 216.931 166.636 216.881 166.573 216.818V216.818Z" fill="#F6B391"></path> <path d="M161.063 216.816L160.914 216.663C160.788 216.537 160.718 216.367 160.718 216.189C160.718 216.012 160.788 215.841 160.914 215.715L189.863 186.797C189.925 186.734 189.999 186.685 190.081 186.651C190.162 186.617 190.25 186.6 190.338 186.6C190.426 186.6 190.513 186.617 190.595 186.651C190.677 186.685 190.75 186.734 190.813 186.797L190.965 186.947C191.028 187.009 191.078 187.083 191.112 187.164C191.146 187.245 191.163 187.332 191.163 187.421C191.163 187.509 191.146 187.596 191.112 187.677C191.078 187.759 191.028 187.832 190.965 187.895L162.016 216.816C161.889 216.941 161.718 217.011 161.54 217.011C161.361 217.011 161.19 216.941 161.063 216.816V216.816Z" fill="#F6B391"></path> <path d="M156.62 215.748L156.47 215.596C156.407 215.534 156.358 215.46 156.324 215.379C156.29 215.297 156.272 215.21 156.272 215.122C156.272 215.034 156.29 214.947 156.324 214.865C156.358 214.784 156.407 214.71 156.47 214.648L190.652 180.502C190.714 180.439 190.788 180.39 190.869 180.356C190.951 180.322 191.038 180.305 191.127 180.305C191.215 180.305 191.302 180.322 191.384 180.356C191.465 180.39 191.539 180.439 191.601 180.502L191.754 180.652C191.879 180.778 191.95 180.948 191.95 181.126C191.95 181.303 191.879 181.473 191.754 181.6L157.573 215.746C157.446 215.872 157.275 215.943 157.097 215.943C156.918 215.944 156.747 215.874 156.62 215.748V215.748Z" fill="#F6B391"></path> <path d="M152.751 214.105L152.601 213.952C152.475 213.827 152.405 213.656 152.405 213.478C152.405 213.301 152.475 213.13 152.601 213.004L190.857 174.787C190.919 174.724 190.993 174.675 191.075 174.641C191.156 174.607 191.244 174.589 191.332 174.589C191.42 174.589 191.508 174.607 191.589 174.641C191.671 174.675 191.745 174.724 191.807 174.787L191.96 174.936C192.022 174.999 192.072 175.073 192.106 175.154C192.14 175.236 192.158 175.323 192.158 175.412C192.158 175.5 192.14 175.587 192.106 175.669C192.072 175.751 192.022 175.825 191.96 175.887L153.704 214.102C153.578 214.228 153.407 214.299 153.228 214.3C153.05 214.3 152.878 214.23 152.751 214.105V214.105Z" fill="#F6B391"></path> <path d="M149.263 212.081L149.11 211.931C149.048 211.869 148.998 211.795 148.964 211.713C148.93 211.632 148.912 211.544 148.912 211.456C148.912 211.368 148.93 211.28 148.964 211.199C148.998 211.117 149.048 211.043 149.11 210.981L190.677 169.459C190.739 169.396 190.813 169.346 190.895 169.313C190.977 169.279 191.064 169.261 191.153 169.261C191.241 169.261 191.329 169.279 191.411 169.313C191.492 169.346 191.567 169.396 191.629 169.459L191.782 169.608C191.907 169.735 191.977 169.905 191.977 170.082C191.977 170.26 191.907 170.43 191.782 170.556L150.213 212.081C150.151 212.144 150.077 212.193 149.995 212.227C149.914 212.261 149.826 212.278 149.738 212.278C149.65 212.278 149.562 212.261 149.481 212.227C149.399 212.193 149.325 212.144 149.263 212.081V212.081Z" fill="#F6B391"></path> <path d="M146.042 209.789L145.889 209.636C145.763 209.51 145.692 209.339 145.692 209.161C145.692 208.983 145.763 208.812 145.889 208.686L190.21 164.414C190.272 164.352 190.346 164.302 190.428 164.268C190.509 164.234 190.597 164.217 190.685 164.217C190.773 164.217 190.861 164.234 190.942 164.268C191.024 164.302 191.098 164.352 191.16 164.414L191.313 164.564C191.375 164.626 191.425 164.7 191.459 164.781C191.493 164.862 191.51 164.95 191.51 165.038C191.51 165.126 191.493 165.213 191.459 165.294C191.425 165.376 191.375 165.45 191.313 165.512L147 209.786C146.937 209.85 146.863 209.9 146.781 209.935C146.699 209.969 146.61 209.987 146.521 209.988C146.432 209.988 146.344 209.97 146.261 209.936C146.179 209.902 146.104 209.852 146.042 209.789V209.789Z" fill="#F6B391"></path> <path d="M143.04 207.275L142.887 207.122C142.824 207.061 142.775 206.987 142.741 206.906C142.707 206.825 142.689 206.738 142.689 206.65C142.689 206.562 142.707 206.475 142.741 206.394C142.775 206.313 142.824 206.239 142.887 206.177L189.521 159.589C189.584 159.526 189.658 159.476 189.74 159.442C189.821 159.409 189.909 159.391 189.998 159.391C190.086 159.391 190.174 159.409 190.255 159.442C190.337 159.476 190.411 159.526 190.474 159.589L190.627 159.738C190.689 159.8 190.739 159.874 190.773 159.956C190.807 160.037 190.824 160.124 190.824 160.212C190.824 160.3 190.807 160.388 190.773 160.469C190.739 160.55 190.689 160.624 190.627 160.686L143.989 207.275C143.863 207.401 143.693 207.471 143.514 207.471C143.336 207.471 143.166 207.401 143.04 207.275V207.275Z" fill="#F6B391"></path> <path d="M140.212 204.592L140.06 204.442C139.934 204.316 139.863 204.145 139.863 203.967C139.863 203.788 139.934 203.617 140.06 203.491L188.658 154.946C188.784 154.82 188.954 154.75 189.132 154.75C189.311 154.75 189.481 154.82 189.607 154.946L189.76 155.098C189.823 155.16 189.872 155.234 189.906 155.315C189.94 155.397 189.958 155.484 189.958 155.572C189.958 155.66 189.94 155.747 189.906 155.829C189.872 155.91 189.823 155.984 189.76 156.046L141.168 204.589C141.105 204.652 141.031 204.702 140.949 204.737C140.867 204.771 140.779 204.789 140.691 204.789C140.602 204.789 140.514 204.772 140.432 204.738C140.35 204.704 140.275 204.654 140.212 204.592V204.592Z" fill="#F6B391"></path> <path d="M137.529 201.762L137.377 201.612C137.251 201.486 137.18 201.315 137.18 201.137C137.18 200.959 137.251 200.788 137.377 200.661L187.644 150.461C187.706 150.398 187.78 150.349 187.861 150.315C187.943 150.281 188.03 150.264 188.119 150.264C188.207 150.264 188.294 150.281 188.376 150.315C188.457 150.349 188.531 150.398 188.594 150.461L188.746 150.611C188.872 150.737 188.943 150.908 188.943 151.086C188.943 151.264 188.872 151.435 188.746 151.561L138.479 201.762C138.417 201.824 138.343 201.874 138.262 201.908C138.18 201.942 138.093 201.959 138.004 201.959C137.916 201.959 137.829 201.942 137.747 201.908C137.666 201.874 137.592 201.824 137.529 201.762V201.762Z" fill="#F6B391"></path> <path d="M134.972 198.81L134.819 198.66C134.693 198.534 134.623 198.364 134.623 198.186C134.623 198.008 134.693 197.838 134.819 197.712L186.475 146.115C186.601 145.989 186.772 145.918 186.95 145.918C187.128 145.918 187.299 145.989 187.425 146.115L187.575 146.267C187.637 146.329 187.687 146.403 187.721 146.484C187.755 146.566 187.772 146.653 187.772 146.741C187.772 146.829 187.755 146.916 187.721 146.998C187.687 147.079 187.637 147.153 187.575 147.215L135.919 198.812C135.856 198.874 135.783 198.923 135.701 198.957C135.62 198.99 135.533 199.007 135.445 199.007C135.357 199.007 135.27 198.989 135.189 198.955C135.107 198.921 135.034 198.872 134.972 198.81V198.81Z" fill="#F6B391"></path> <path d="M132.517 195.755L132.367 195.603C132.304 195.541 132.254 195.466 132.22 195.385C132.186 195.303 132.169 195.216 132.169 195.127C132.169 195.039 132.186 194.952 132.22 194.87C132.254 194.789 132.304 194.714 132.367 194.652L185.133 141.935C185.259 141.809 185.43 141.739 185.608 141.739C185.786 141.739 185.957 141.809 186.083 141.935L186.233 142.087C186.296 142.149 186.345 142.223 186.379 142.305C186.413 142.386 186.431 142.473 186.431 142.561C186.431 142.649 186.413 142.737 186.379 142.818C186.345 142.899 186.296 142.973 186.233 143.035L133.466 195.755C133.34 195.88 133.169 195.95 132.992 195.95C132.814 195.95 132.643 195.88 132.517 195.755V195.755Z" fill="#F6B391"></path> <path d="M130.167 192.595L130.015 192.443C129.889 192.317 129.818 192.147 129.818 191.969C129.818 191.791 129.889 191.621 130.015 191.495L183.659 137.918C183.721 137.856 183.795 137.806 183.876 137.772C183.958 137.739 184.045 137.721 184.134 137.721C184.222 137.721 184.309 137.739 184.391 137.772C184.472 137.806 184.546 137.856 184.608 137.918L184.761 138.068C184.824 138.13 184.874 138.205 184.908 138.286C184.942 138.368 184.959 138.455 184.959 138.544C184.959 138.632 184.942 138.719 184.908 138.801C184.874 138.882 184.824 138.957 184.761 139.019L131.117 192.595C130.991 192.72 130.82 192.79 130.642 192.79C130.464 192.79 130.294 192.72 130.167 192.595V192.595Z" fill="#F6B391"></path> <path d="M127.901 189.349L127.748 189.2C127.623 189.073 127.553 188.902 127.553 188.724C127.553 188.546 127.623 188.376 127.748 188.249L182.015 134.043C182.141 133.918 182.311 133.847 182.489 133.847C182.668 133.847 182.838 133.918 182.964 134.043L183.114 134.196C183.177 134.258 183.227 134.331 183.261 134.413C183.296 134.494 183.313 134.582 183.313 134.67C183.313 134.758 183.296 134.845 183.261 134.927C183.227 135.008 183.177 135.082 183.114 135.144L128.854 189.349C128.727 189.475 128.556 189.545 128.377 189.545C128.199 189.545 128.028 189.475 127.901 189.349V189.349Z" fill="#F6B391"></path> <path d="M125.715 186.026L125.563 185.876C125.5 185.814 125.45 185.74 125.416 185.658C125.382 185.577 125.365 185.489 125.365 185.401C125.365 185.312 125.382 185.225 125.416 185.143C125.45 185.062 125.5 184.988 125.563 184.925L180.254 130.29C180.38 130.164 180.552 130.094 180.73 130.094C180.909 130.094 181.08 130.164 181.206 130.29L181.356 130.44C181.482 130.566 181.553 130.737 181.553 130.915C181.553 131.093 181.482 131.264 181.356 131.391L126.665 186.026C126.603 186.088 126.529 186.138 126.447 186.172C126.366 186.206 126.279 186.223 126.19 186.223C126.102 186.223 126.015 186.206 125.933 186.172C125.852 186.138 125.778 186.088 125.715 186.026V186.026Z" fill="#F6B391"></path> <path d="M123.599 182.631L123.449 182.478C123.387 182.416 123.337 182.343 123.303 182.261C123.269 182.18 123.251 182.093 123.251 182.004C123.251 181.916 123.269 181.829 123.303 181.748C123.337 181.666 123.387 181.593 123.449 181.531L178.382 126.66C178.509 126.535 178.68 126.464 178.858 126.464C179.037 126.464 179.208 126.535 179.335 126.66L179.487 126.812C179.612 126.938 179.683 127.109 179.683 127.286C179.683 127.464 179.612 127.634 179.487 127.76L124.56 182.642C124.497 182.705 124.421 182.755 124.338 182.789C124.256 182.822 124.167 182.839 124.077 182.838C123.988 182.837 123.899 182.818 123.817 182.783C123.735 182.747 123.661 182.696 123.599 182.631Z" fill="#F6B391"></path> <path d="M121.38 179.332L121.23 179.18C121.167 179.118 121.118 179.044 121.084 178.963C121.05 178.881 121.032 178.794 121.032 178.706C121.032 178.618 121.05 178.531 121.084 178.449C121.118 178.368 121.167 178.294 121.23 178.232L176.391 123.128C176.453 123.066 176.527 123.016 176.609 122.982C176.691 122.948 176.778 122.931 176.867 122.931C176.955 122.931 177.043 122.948 177.125 122.982C177.207 123.016 177.281 123.066 177.343 123.128L177.493 123.278C177.556 123.34 177.606 123.414 177.64 123.496C177.674 123.577 177.691 123.665 177.691 123.753C177.691 123.842 177.674 123.929 177.64 124.011C177.606 124.092 177.556 124.166 177.493 124.229L122.333 179.33C122.207 179.456 122.036 179.527 121.857 179.527C121.678 179.528 121.507 179.458 121.38 179.332Z" fill="#F6B391"></path> <path d="M118.8 176.402L118.648 176.253C118.522 176.126 118.452 175.955 118.452 175.777C118.452 175.599 118.522 175.428 118.648 175.302L174.308 119.699C174.435 119.574 174.606 119.504 174.784 119.504C174.963 119.504 175.134 119.574 175.261 119.699L175.41 119.852C175.536 119.977 175.607 120.148 175.607 120.326C175.607 120.503 175.536 120.674 175.41 120.8L119.75 176.399C119.624 176.525 119.454 176.596 119.276 176.597C119.098 176.597 118.927 176.527 118.8 176.402V176.402Z" fill="#F6B391"></path> <path d="M115.859 173.83L115.709 173.68C115.583 173.554 115.512 173.383 115.512 173.205C115.512 173.027 115.583 172.856 115.709 172.73L172.133 116.368C172.259 116.242 172.43 116.171 172.608 116.171C172.786 116.171 172.957 116.242 173.083 116.368L173.233 116.52C173.296 116.582 173.346 116.656 173.38 116.737C173.414 116.818 173.432 116.906 173.432 116.994C173.432 117.082 173.414 117.17 173.38 117.251C173.346 117.332 173.296 117.406 173.233 117.468L116.812 173.83C116.749 173.893 116.675 173.942 116.593 173.976C116.511 174.01 116.424 174.028 116.335 174.028C116.247 174.028 116.159 174.01 116.077 173.976C115.996 173.942 115.922 173.893 115.859 173.83V173.83Z" fill="#F6B391"></path> <path d="M112.563 171.621L112.413 171.471C112.287 171.345 112.216 171.174 112.216 170.996C112.216 170.818 112.287 170.647 112.413 170.52L169.867 113.122C169.929 113.059 170.003 113.009 170.085 112.976C170.166 112.942 170.254 112.924 170.342 112.924C170.43 112.924 170.518 112.942 170.599 112.976C170.681 113.009 170.755 113.059 170.817 113.122L170.97 113.271C171.096 113.398 171.166 113.568 171.166 113.747C171.166 113.925 171.096 114.096 170.97 114.222L113.51 171.621C113.384 171.746 113.214 171.816 113.036 171.816C112.859 171.816 112.689 171.746 112.563 171.621Z" fill="#F6B391"></path> <path d="M108.905 169.764L108.752 169.614C108.69 169.552 108.64 169.478 108.606 169.396C108.572 169.315 108.554 169.227 108.554 169.139C108.554 169.05 108.572 168.963 108.606 168.881C108.64 168.8 108.69 168.726 108.752 168.663L167.512 109.967C167.639 109.842 167.81 109.771 167.988 109.771C168.167 109.771 168.338 109.842 168.465 109.967L168.615 110.12C168.74 110.246 168.81 110.416 168.81 110.594C168.81 110.771 168.74 110.942 168.615 111.068L109.855 169.764C109.729 169.889 109.558 169.96 109.38 169.96C109.202 169.96 109.031 169.889 108.905 169.764Z" fill="#F6B391"></path> <path d="M104.911 168.245L104.759 168.095C104.633 167.968 104.563 167.798 104.563 167.62C104.563 167.442 104.633 167.271 104.759 167.144L165.065 106.904C165.192 106.779 165.363 106.708 165.542 106.708C165.72 106.708 165.891 106.779 166.018 106.904L166.168 107.057C166.294 107.183 166.364 107.353 166.364 107.531C166.364 107.709 166.294 107.879 166.168 108.005L105.861 168.245C105.799 168.307 105.725 168.357 105.644 168.391C105.562 168.425 105.475 168.442 105.386 168.442C105.298 168.442 105.211 168.425 105.129 168.391C105.048 168.357 104.974 168.307 104.911 168.245V168.245Z" fill="#F6B391"></path> <path d="M100.585 167.053L100.435 166.9C100.372 166.838 100.322 166.764 100.288 166.683C100.255 166.602 100.237 166.514 100.237 166.426C100.237 166.338 100.255 166.251 100.288 166.17C100.322 166.088 100.372 166.014 100.435 165.952L162.552 103.916C162.678 103.791 162.849 103.721 163.027 103.721C163.205 103.721 163.376 103.791 163.502 103.916L163.652 104.066C163.715 104.128 163.764 104.202 163.798 104.284C163.832 104.365 163.85 104.453 163.85 104.541C163.85 104.63 163.832 104.717 163.798 104.799C163.764 104.88 163.715 104.954 163.652 105.017L101.537 167.053C101.411 167.178 101.24 167.249 101.061 167.249C100.882 167.249 100.711 167.178 100.585 167.053V167.053Z" fill="#F6B391"></path> <path d="M95.9494 166.183L95.7994 166.03C95.6734 165.904 95.6027 165.733 95.6027 165.555C95.6027 165.377 95.6734 165.206 95.7994 165.079L159.925 101.023C159.987 100.96 160.061 100.91 160.143 100.877C160.225 100.843 160.312 100.825 160.401 100.825C160.489 100.825 160.577 100.843 160.659 100.877C160.741 100.91 160.815 100.96 160.877 101.023L161.03 101.172C161.155 101.299 161.226 101.47 161.226 101.648C161.226 101.826 161.155 101.997 161.03 102.123L96.9047 166.18C96.8422 166.243 96.7679 166.293 96.6861 166.327C96.6042 166.361 96.5164 166.379 96.4276 166.379C96.3389 166.379 96.251 166.362 96.1689 166.328C96.0869 166.295 96.0123 166.245 95.9494 166.183V166.183Z" fill="#F6B391"></path> <path d="M91.0088 165.609L90.8589 165.456C90.733 165.33 90.6624 165.16 90.6624 164.982C90.6624 164.804 90.733 164.634 90.8589 164.508L157.234 98.2146C157.296 98.152 157.37 98.1023 157.452 98.0684C157.534 98.0345 157.621 98.0171 157.71 98.0171C157.798 98.0171 157.886 98.0345 157.968 98.0684C158.05 98.1023 158.124 98.152 158.186 98.2146L158.339 98.3643C158.464 98.4904 158.534 98.6608 158.534 98.8383C158.534 99.0158 158.464 99.1861 158.339 99.3123L91.9642 165.609C91.8372 165.735 91.6655 165.805 91.4865 165.805C91.3075 165.805 91.1358 165.735 91.0088 165.609Z" fill="#F6B391"></path> <path d="M85.7961 165.304L85.6461 165.154C85.5201 165.028 85.4493 164.857 85.4493 164.679C85.4493 164.501 85.5201 164.33 85.6461 164.203L154.429 95.4928C154.555 95.367 154.726 95.2964 154.905 95.2964C155.084 95.2964 155.255 95.367 155.381 95.4928L155.531 95.6452C155.594 95.7073 155.644 95.7811 155.678 95.8625C155.711 95.9438 155.729 96.0311 155.729 96.1192C155.729 96.2073 155.711 96.2945 155.678 96.3759C155.644 96.4572 155.594 96.5311 155.531 96.5932L86.7486 165.304C86.6218 165.429 86.4507 165.499 86.2724 165.499C86.094 165.499 85.9229 165.429 85.7961 165.304V165.304Z" fill="#F6B391"></path> <path d="M80.3472 165.246L80.1972 165.096C80.0712 164.97 80.0005 164.799 80.0005 164.621C80.0005 164.443 80.0712 164.272 80.1972 164.146L151.571 92.8571C151.697 92.7322 151.868 92.6621 152.046 92.6621C152.224 92.6621 152.394 92.7322 152.521 92.8571L152.674 93.0096C152.799 93.1357 152.869 93.306 152.869 93.4835C152.869 93.6611 152.799 93.8314 152.674 93.9575L81.2998 165.243C81.2375 165.306 81.1634 165.356 81.0818 165.39C81.0002 165.424 80.9126 165.442 80.8241 165.442C80.7356 165.442 80.6479 165.425 80.566 165.391C80.4842 165.358 80.4098 165.308 80.3472 165.246V165.246Z" fill="#F6B391"></path> <path d="M74.6956 165.39L74.5429 165.237C74.4802 165.175 74.4304 165.101 74.3964 165.019C74.3625 164.938 74.345 164.85 74.345 164.762C74.345 164.674 74.3625 164.586 74.3964 164.505C74.4304 164.423 74.4802 164.349 74.5429 164.287L148.572 90.3235C148.634 90.2609 148.708 90.2112 148.79 90.1773C148.872 90.1434 148.959 90.126 149.048 90.126C149.136 90.126 149.224 90.1434 149.306 90.1773C149.387 90.2112 149.462 90.2609 149.524 90.3235L149.674 90.4732C149.8 90.5989 149.871 90.7694 149.871 90.9472C149.871 91.1249 149.8 91.2954 149.674 91.4211L75.6454 165.373C75.5216 165.501 75.3521 165.575 75.174 165.578C74.9959 165.581 74.8238 165.513 74.6956 165.39V165.39Z" fill="#F6B391"></path> <path d="M68.9301 165.623L68.7802 165.473C68.7175 165.411 68.6677 165.337 68.6337 165.255C68.5998 165.173 68.5823 165.086 68.5823 164.998C68.5823 164.909 68.5998 164.822 68.6337 164.74C68.6677 164.659 68.7175 164.585 68.7802 164.522L145.503 87.8814C145.629 87.7557 145.801 87.6851 145.979 87.6851C146.158 87.6851 146.329 87.7557 146.455 87.8814L146.605 88.0311C146.731 88.1574 146.802 88.3283 146.802 88.5065C146.802 88.6847 146.731 88.8556 146.605 88.9818L69.8827 165.623C69.8203 165.685 69.7461 165.735 69.6643 165.769C69.5826 165.803 69.4949 165.82 69.4064 165.82C69.3179 165.82 69.2303 165.803 69.1486 165.769C69.0668 165.735 68.9926 165.685 68.9301 165.623Z" fill="#F6B391"></path> <path d="M63.3425 165.698L63.1925 165.548C63.1298 165.486 63.08 165.412 63.0461 165.33C63.0121 165.249 62.9946 165.161 62.9946 165.073C62.9946 164.984 63.0121 164.897 63.0461 164.815C63.08 164.734 63.1298 164.66 63.1925 164.597L142.342 85.5396C142.405 85.4771 142.479 85.4274 142.56 85.3936C142.642 85.3597 142.729 85.3423 142.817 85.3423C142.906 85.3423 142.993 85.3597 143.074 85.3936C143.156 85.4274 143.23 85.4771 143.292 85.5396L143.445 85.6893C143.571 85.815 143.641 85.9855 143.641 86.1632C143.641 86.341 143.571 86.5114 143.445 86.6372L64.2951 165.698C64.1682 165.823 63.9971 165.893 63.8188 165.893C63.6405 165.893 63.4693 165.823 63.3425 165.698V165.698Z" fill="#F6B391"></path> <path d="M58.5518 164.977L58.4074 164.836C58.2821 164.709 58.2118 164.539 58.2118 164.361C58.2118 164.183 58.2821 164.012 58.4074 163.885L139.071 83.3084C139.197 83.1828 139.368 83.1123 139.546 83.1123C139.724 83.1123 139.895 83.1828 140.021 83.3084L140.173 83.4609C140.236 83.5232 140.286 83.5973 140.32 83.6789C140.354 83.7604 140.371 83.8479 140.371 83.9363C140.371 84.0246 140.354 84.1121 140.32 84.1936C140.286 84.2752 140.236 84.3493 140.173 84.4116L59.5016 164.977C59.3753 165.102 59.2046 165.172 59.0267 165.172C58.8489 165.172 58.6782 165.102 58.5518 164.977V164.977Z" fill="#F6B391"></path> <path d="M54.1916 163.824L54.0389 163.674C53.9136 163.548 53.8433 163.377 53.8433 163.199C53.8433 163.021 53.9136 162.85 54.0389 162.724L135.688 81.1739C135.815 81.0482 135.986 80.9775 136.165 80.9775C136.343 80.9775 136.514 81.0482 136.641 81.1739L136.791 81.3264C136.853 81.3885 136.903 81.4623 136.937 81.5436C136.971 81.625 136.988 81.7122 136.988 81.8003C136.988 81.8885 136.971 81.9757 136.937 82.057C136.903 82.1384 136.853 82.2122 136.791 82.2743L55.1442 163.824C55.0177 163.95 54.8465 164.02 54.6679 164.02C54.4894 164.02 54.3181 163.95 54.1916 163.824V163.824Z" fill="#F6B391"></path> <path d="M50.1453 162.358L49.9925 162.208C49.8667 162.082 49.796 161.912 49.796 161.734C49.796 161.556 49.8667 161.386 49.9925 161.26L132.172 79.167C132.235 79.1045 132.308 79.0549 132.39 79.021C132.472 78.9872 132.559 78.9697 132.647 78.9697C132.735 78.9697 132.823 78.9872 132.904 79.021C132.986 79.0549 133.06 79.1045 133.122 79.167L133.275 79.3167C133.401 79.4425 133.471 79.6129 133.471 79.7907C133.471 79.9684 133.401 80.1389 133.275 80.2647L51.0951 162.358C51.0329 162.42 50.9589 162.47 50.8774 162.504C50.7959 162.537 50.7085 162.555 50.6202 162.555C50.5319 162.555 50.4445 162.537 50.363 162.504C50.2815 162.47 50.2075 162.42 50.1453 162.358V162.358Z" fill="#F6B391"></path> <path d="M46.3544 160.639L46.2016 160.487C46.0758 160.361 46.0051 160.19 46.0051 160.013C46.0051 159.835 46.0758 159.665 46.2016 159.539L128.545 77.2823C128.672 77.1565 128.843 77.0859 129.022 77.0859C129.2 77.0859 129.371 77.1565 129.498 77.2823L129.648 77.4348C129.71 77.4969 129.76 77.5707 129.794 77.652C129.828 77.7334 129.845 77.8206 129.845 77.9087C129.845 77.9969 129.828 78.0841 129.794 78.1654C129.76 78.2468 129.71 78.3206 129.648 78.3827L47.2986 160.636C47.1732 160.761 47.0038 160.831 46.8271 160.831C46.6504 160.832 46.4805 160.763 46.3544 160.639V160.639Z" fill="#F6B391"></path> <path d="M42.8052 158.674L42.6553 158.524C42.5292 158.398 42.4585 158.227 42.4585 158.049C42.4585 157.871 42.5292 157.7 42.6553 157.574L124.777 75.5278C124.904 75.4027 125.075 75.3325 125.253 75.3325C125.431 75.3325 125.602 75.4027 125.729 75.5278L125.879 75.6802C126.005 75.806 126.076 75.9765 126.076 76.1542C126.076 76.3319 126.005 76.5024 125.879 76.6282L43.7578 158.674C43.6953 158.737 43.6211 158.786 43.5394 158.82C43.4577 158.854 43.37 158.872 43.2815 158.872C43.193 158.872 43.1054 158.854 43.0236 158.82C42.9419 158.786 42.8677 158.737 42.8052 158.674V158.674Z" fill="#F6B391"></path> <path d="M39.4865 156.473L39.3365 156.324C39.2105 156.197 39.1398 156.026 39.1398 155.848C39.1398 155.67 39.2105 155.499 39.3365 155.373L120.853 73.9423C120.979 73.8172 121.151 73.7471 121.329 73.7471C121.507 73.7471 121.678 73.8172 121.805 73.9423L121.955 74.0948C122.081 74.2205 122.152 74.391 122.152 74.5687C122.152 74.7465 122.081 74.917 121.955 75.0427L40.4391 156.473C40.3766 156.536 40.3024 156.585 40.2207 156.619C40.1389 156.653 40.0513 156.671 39.9628 156.671C39.8743 156.671 39.7866 156.653 39.7049 156.619C39.6232 156.585 39.5489 156.536 39.4865 156.473Z" fill="#F6B391"></path> <path d="M36.4177 154.025L36.2677 153.876C36.205 153.813 36.1552 153.739 36.1213 153.658C36.0873 153.576 36.0698 153.489 36.0698 153.4C36.0698 153.312 36.0873 153.224 36.1213 153.143C36.1552 153.061 36.205 152.987 36.2677 152.925L116.77 72.5145C116.896 72.3889 117.067 72.3184 117.245 72.3184C117.423 72.3184 117.594 72.3889 117.72 72.5145L117.873 72.6669C117.998 72.7931 118.068 72.9634 118.068 73.1409C118.068 73.3184 117.998 73.4888 117.873 73.6149L37.3703 154.025C37.2438 154.151 37.0725 154.222 36.894 154.222C36.7154 154.222 36.5442 154.151 36.4177 154.025V154.025Z" fill="#F6B391"></path> <path d="M33.6072 151.331L33.4544 151.182C33.3291 151.055 33.2588 150.884 33.2588 150.706C33.2588 150.528 33.3291 150.358 33.4544 150.231L112.496 71.2757C112.622 71.1501 112.793 71.0796 112.971 71.0796C113.149 71.0796 113.32 71.1501 113.446 71.2757L113.598 71.4282C113.661 71.4903 113.711 71.5641 113.745 71.6455C113.779 71.7268 113.796 71.814 113.796 71.9022C113.796 71.9903 113.779 72.0775 113.745 72.1589C113.711 72.2402 113.661 72.314 113.598 72.3761L34.5597 151.331C34.4973 151.394 34.4231 151.444 34.3413 151.478C34.2596 151.511 34.172 151.529 34.0834 151.529C33.9949 151.529 33.9073 151.511 33.8256 151.478C33.7438 151.444 33.6696 151.394 33.6072 151.331Z" fill="#F6B391"></path> <path d="M31.0688 148.36L30.9133 148.205C30.7879 148.078 30.7177 147.907 30.7177 147.729C30.7177 147.551 30.7879 147.38 30.9133 147.254L108.008 70.25C108.07 70.1875 108.144 70.1379 108.226 70.104C108.307 70.0702 108.395 70.0527 108.483 70.0527C108.571 70.0527 108.659 70.0702 108.74 70.104C108.822 70.1379 108.896 70.1875 108.958 70.25L109.111 70.3997C109.173 70.462 109.223 70.5361 109.257 70.6177C109.291 70.6993 109.308 70.7867 109.308 70.8751C109.308 70.9634 109.291 71.0509 109.257 71.1325C109.223 71.214 109.173 71.2881 109.111 71.3504L32.0241 148.36C31.9615 148.423 31.887 148.472 31.805 148.506C31.7231 148.54 31.6352 148.558 31.5465 148.558C31.4577 148.558 31.3699 148.54 31.2879 148.506C31.2059 148.472 31.1315 148.423 31.0688 148.36V148.36Z" fill="#F6B391"></path> <path d="M28.847 145.073L28.6943 144.92C28.6316 144.858 28.5819 144.784 28.548 144.703C28.514 144.621 28.4966 144.534 28.4966 144.446C28.4966 144.358 28.514 144.271 28.548 144.189C28.5819 144.108 28.6316 144.034 28.6943 143.972L103.27 69.485C103.333 69.4218 103.408 69.3717 103.49 69.3375C103.573 69.3033 103.661 69.2856 103.751 69.2856C103.84 69.2856 103.928 69.3033 104.011 69.3375C104.093 69.3717 104.168 69.4218 104.231 69.485L104.381 69.6375C104.507 69.7632 104.577 69.9337 104.577 70.1115C104.577 70.2892 104.507 70.4597 104.381 70.5854L29.8024 145.073C29.7397 145.135 29.6652 145.185 29.5832 145.219C29.5013 145.253 29.4134 145.27 29.3247 145.27C29.2359 145.27 29.1481 145.253 29.0661 145.219C28.9841 145.185 28.9097 145.135 28.847 145.073V145.073Z" fill="#F6B391"></path> <path d="M26.9753 141.433L26.8225 141.283C26.7598 141.221 26.71 141.147 26.6761 141.065C26.6421 140.984 26.6246 140.896 26.6246 140.808C26.6246 140.72 26.6421 140.632 26.6761 140.551C26.71 140.469 26.7598 140.395 26.8225 140.333L98.2435 68.9889C98.37 68.8631 98.5412 68.7925 98.7198 68.7925C98.8983 68.7925 99.0696 68.8631 99.1961 68.9889L99.346 69.1413C99.4087 69.2034 99.4584 69.2772 99.4923 69.3586C99.5262 69.4399 99.5437 69.5272 99.5437 69.6153C99.5437 69.7034 99.5262 69.7906 99.4923 69.872C99.4584 69.9533 99.4087 70.0272 99.346 70.0893L27.9251 141.433C27.8629 141.496 27.7889 141.545 27.7074 141.579C27.6259 141.613 27.5385 141.63 27.4502 141.63C27.3619 141.63 27.2745 141.613 27.193 141.579C27.1115 141.545 27.0375 141.496 26.9753 141.433V141.433Z" fill="#F6B391"></path> <path d="M25.5227 137.375L25.3728 137.222C25.2484 137.099 25.1774 136.932 25.1748 136.757C25.1722 136.582 25.2382 136.413 25.3589 136.286L92.8695 68.8473C92.996 68.7215 93.1673 68.6509 93.3458 68.6509C93.5244 68.6509 93.6956 68.7215 93.8221 68.8473L93.9721 68.9969C94.0981 69.1232 94.1688 69.2941 94.1688 69.4723C94.1688 69.6505 94.0981 69.8214 93.9721 69.9477L26.4697 137.375C26.3439 137.5 26.1736 137.57 25.9962 137.57C25.8188 137.57 25.6486 137.5 25.5227 137.375V137.375Z" fill="#F6B391"></path> <path d="M24.584 132.807L24.4341 132.655C24.3082 132.529 24.2375 132.359 24.2375 132.181C24.2375 132.003 24.3082 131.833 24.4341 131.707L87.0874 69.1165C87.1498 69.0539 87.2241 69.0042 87.3058 68.9703C87.3875 68.9364 87.4752 68.9189 87.5637 68.9189C87.6522 68.9189 87.7398 68.9364 87.8216 68.9703C87.9033 69.0042 87.9775 69.0539 88.04 69.1165L88.1899 69.2661C88.316 69.3924 88.3867 69.5633 88.3867 69.7415C88.3867 69.9197 88.316 70.0906 88.1899 70.2169L25.5338 132.805C25.4082 132.93 25.2376 133.002 25.0595 133.002C24.8814 133.003 24.7104 132.933 24.584 132.807V132.807Z" fill="#F6B391"></path> <path d="M24.2953 127.585L24.1425 127.435C24.0174 127.309 23.9471 127.139 23.9471 126.961C23.9471 126.784 24.0174 126.614 24.1425 126.487L80.7777 69.9119C80.8402 69.8493 80.9144 69.7996 80.9961 69.7657C81.0779 69.7318 81.1655 69.7144 81.254 69.7144C81.3425 69.7144 81.4302 69.7318 81.5119 69.7657C81.5936 69.7996 81.6679 69.8493 81.7303 69.9119L81.8803 70.0616C81.9429 70.1236 81.9926 70.1975 82.0265 70.2788C82.0605 70.3602 82.0779 70.4474 82.0779 70.5355C82.0779 70.6237 82.0605 70.7109 82.0265 70.7922C81.9926 70.8736 81.9429 70.9474 81.8803 71.0095L25.2478 127.585C25.1854 127.648 25.1112 127.697 25.0294 127.731C24.9477 127.765 24.8601 127.783 24.7716 127.783C24.683 127.783 24.5954 127.765 24.5137 127.731C24.4319 127.697 24.3577 127.648 24.2953 127.585Z" fill="#F6B391"></path> <path d="M24.8812 121.49L24.7285 121.34C24.6025 121.214 24.5317 121.043 24.5317 120.865C24.5317 120.687 24.6025 120.516 24.7285 120.39L73.7237 71.4448C73.8505 71.3197 74.0216 71.2495 74.2 71.2495C74.3783 71.2495 74.5494 71.3197 74.6762 71.4448L74.8262 71.5972C74.952 71.723 75.0227 71.8934 75.0227 72.0712C75.0227 72.2489 74.952 72.4194 74.8262 72.5452L25.831 121.49C25.7688 121.552 25.6948 121.602 25.6133 121.636C25.5318 121.67 25.4444 121.687 25.3561 121.687C25.2679 121.687 25.1804 121.67 25.0989 121.636C25.0174 121.602 24.9434 121.552 24.8812 121.49V121.49Z" fill="#F6B391"></path> <path d="M26.7475 114.112L26.5976 113.962C26.5348 113.9 26.4851 113.826 26.4511 113.744C26.4171 113.662 26.3997 113.575 26.3997 113.487C26.3997 113.398 26.4171 113.311 26.4511 113.229C26.4851 113.148 26.5348 113.074 26.5976 113.011L65.5199 74.1309C65.6463 74.0052 65.8176 73.9346 65.9961 73.9346C66.1747 73.9346 66.3459 74.0052 66.4724 74.1309L66.6224 74.2834C66.685 74.3455 66.7348 74.4193 66.7687 74.5007C66.8026 74.582 66.8201 74.6693 66.8201 74.7574C66.8201 74.8455 66.8026 74.9327 66.7687 75.0141C66.7348 75.0954 66.685 75.1693 66.6224 75.2314L27.7112 114.112C27.6486 114.176 27.5737 114.227 27.4909 114.262C27.4081 114.297 27.3192 114.315 27.2294 114.315C27.1395 114.315 27.0506 114.297 26.9678 114.262C26.8851 114.227 26.8102 114.176 26.7475 114.112V114.112Z" fill="#F6B391"></path> <path d="M31.1355 104.224L30.9827 104.072C30.9201 104.01 30.8704 103.936 30.8364 103.854C30.8025 103.773 30.785 103.686 30.785 103.598C30.785 103.51 30.8025 103.422 30.8364 103.341C30.8704 103.26 30.9201 103.186 30.9827 103.124L54.7971 79.322C54.8595 79.2594 54.9338 79.2098 55.0155 79.1759C55.0972 79.142 55.1849 79.1245 55.2734 79.1245C55.3619 79.1245 55.4495 79.142 55.5313 79.1759C55.613 79.2098 55.6872 79.2594 55.7497 79.322L55.8996 79.4717C55.9624 79.534 56.0121 79.6081 56.0461 79.6897C56.0801 79.7713 56.0975 79.8587 56.0975 79.9471C56.0975 80.0354 56.0801 80.1229 56.0461 80.2045C56.0121 80.286 55.9624 80.3601 55.8996 80.4224L32.0852 104.221C31.9596 104.347 31.789 104.418 31.6109 104.419C31.4328 104.419 31.2618 104.349 31.1355 104.224V104.224Z" fill="#F6B391"></path> <path d="M96.8866 46.3205C84.5326 66.2293 94.267 87.6555 69.4408 107.223C45.8428 125.815 37.5167 142.754 49.7245 158.971C60.2243 172.922 80.8588 176.369 108.359 170.444C123.317 167.221 139.235 172.526 153.226 182.785C172.477 196.91 194.236 202.967 211.783 191.12C229.33 179.273 247.007 148.797 203.276 118.611C187.381 107.635 174.246 87.0035 170.213 66.2079C165.926 44.1518 153.472 35.7364 138.66 31.9877C129.991 29.7901 107.53 29.1716 96.8866 46.3205Z" fill="#F2543B"></path> <path d="M258.798 136.222C251.228 125.767 230.193 107.395 194.748 117.44C166.065 125.581 141.318 155.134 151.61 188.216C157.617 207.527 170.42 217.924 183.825 220.923C199.841 224.526 219.043 218.004 223.928 201.964C228.813 185.923 235.486 167.105 254.435 168.175C273.384 169.245 266.369 146.68 258.798 136.222Z" fill="#F6E1AE"></path> <path d="M161.224 75.7928C114.037 52.852 65.4566 85.4008 61.8057 106.48C58.1548 127.559 101.629 127.357 94.8366 159.005C88.0438 190.653 82.3794 207.361 104.873 223.475C123.236 236.625 143.191 238.258 154.622 236.011C180.589 230.895 204.666 216.554 215.881 177.203C226.102 141.296 208.275 98.6675 161.224 75.7928Z" fill="#6DA3C1"></path> <path d="M193.535 172.619C185.234 169.048 172.309 164.5 157.584 168.658C142.859 172.815 130.487 180.798 121.625 198.701C112.763 216.604 118.109 231.883 125.358 242.319C130.462 249.689 144.626 256.369 152.818 244.328C161.011 232.287 169.548 227.645 180.035 227.553C187.097 227.492 207.29 235.007 216.624 214.717C224.903 196.697 206.79 178.317 193.535 172.619Z" fill="#F2543B"></path> <path d="M40.6663 181C37.7653 181.001 34.9296 181.86 32.5177 183.469C30.1058 185.078 28.226 187.364 27.1161 190.039C26.0062 192.714 25.7159 195.658 26.282 198.498C26.8481 201.337 28.2451 203.946 30.2965 205.993C32.3478 208.041 34.9614 209.435 37.8066 210C40.6519 210.565 43.6011 210.275 46.2815 209.168C48.9618 208.06 51.2528 206.184 52.8649 203.776C54.477 201.369 55.3377 198.539 55.3382 195.644C55.3386 193.72 54.9593 191.816 54.2221 190.039C53.4849 188.262 52.4042 186.648 51.0417 185.288C49.6793 183.928 48.0617 182.85 46.2815 182.114C44.5012 181.378 42.5932 181 40.6663 181V181Z" fill="#F6E1AE"></path> <path d="M223.559 217.952C221.625 217.953 219.734 218.526 218.127 219.598C216.519 220.671 215.266 222.195 214.526 223.979C213.787 225.762 213.593 227.724 213.971 229.617C214.349 231.51 215.28 233.249 216.648 234.614C218.016 235.978 219.758 236.908 221.655 237.284C223.551 237.66 225.517 237.467 227.304 236.728C229.091 235.989 230.618 234.738 231.692 233.134C232.766 231.529 233.34 229.642 233.34 227.712C233.34 226.43 233.087 225.16 232.596 223.976C232.104 222.791 231.384 221.715 230.476 220.809C229.567 219.902 228.489 219.184 227.302 218.694C226.115 218.203 224.843 217.951 223.559 217.952Z" fill="#6DA3C1"></path> <path d="M59.6711 98.7192C68.3125 98.7192 75.3178 91.7275 75.3178 83.1028C75.3178 74.478 68.3125 67.4863 59.6711 67.4863C51.0297 67.4863 44.0244 74.478 44.0244 83.1028C44.0244 91.7275 51.0297 98.7192 59.6711 98.7192Z" fill="#F6E1AE"></path> <path d="M41.6026 87.1388C40.5085 86.0469 39.1145 85.3033 37.5969 85.002C36.0794 84.7008 34.5064 84.8555 33.0769 85.4465C31.6474 86.0375 30.4256 87.0383 29.566 88.3223C28.7064 89.6064 28.2476 91.116 28.2476 92.6603C28.2476 94.2046 28.7064 95.7142 29.566 96.9982C30.4256 98.2823 31.6474 99.2831 33.0769 99.8741C34.5064 100.465 36.0794 100.62 37.5969 100.319C39.1145 100.017 40.5085 99.2737 41.6026 98.1817C42.3291 97.4567 42.9055 96.5959 43.2987 95.6485C43.6919 94.7011 43.8942 93.6857 43.8942 92.6603C43.8942 91.6348 43.6919 90.6194 43.2987 89.6721C42.9055 88.7247 42.3291 87.8639 41.6026 87.1388V87.1388Z" fill="#F6E1AE"></path> <path d="M192.546 227.478C192.473 227.407 192.416 227.321 192.376 227.228C192.337 227.134 192.317 227.033 192.317 226.931C192.317 226.829 192.337 226.728 192.376 226.634C192.416 226.54 192.473 226.455 192.546 226.384L199.7 219.241C199.772 219.167 199.859 219.109 199.954 219.069C200.049 219.029 200.152 219.009 200.255 219.009C200.358 219.009 200.461 219.029 200.556 219.069C200.651 219.109 200.738 219.167 200.811 219.241V219.241C200.884 219.313 200.942 219.399 200.982 219.494C201.022 219.59 201.043 219.692 201.043 219.795C201.043 219.898 201.022 220 200.982 220.095C200.942 220.191 200.884 220.277 200.811 220.349L193.656 227.478C193.584 227.553 193.498 227.611 193.403 227.652C193.307 227.692 193.205 227.713 193.101 227.713C192.997 227.713 192.895 227.692 192.8 227.652C192.704 227.611 192.618 227.553 192.546 227.478Z" fill="#F6B391"></path> <path d="M183.253 231.268C183.179 231.196 183.12 231.109 183.08 231.014C183.039 230.919 183.019 230.817 183.019 230.713C183.019 230.61 183.039 230.508 183.08 230.412C183.12 230.317 183.179 230.231 183.253 230.159L203.491 209.961C203.563 209.887 203.649 209.828 203.745 209.788C203.84 209.747 203.942 209.727 204.046 209.727C204.15 209.727 204.252 209.747 204.347 209.788C204.443 209.828 204.529 209.887 204.601 209.961V209.961C204.675 210.033 204.733 210.119 204.773 210.215C204.813 210.31 204.834 210.412 204.834 210.515C204.834 210.618 204.813 210.72 204.773 210.815C204.733 210.911 204.675 210.997 204.601 211.069L184.353 231.268C184.207 231.413 184.009 231.494 183.803 231.494C183.597 231.494 183.399 231.413 183.253 231.268V231.268Z" fill="#F6B391"></path> <path d="M176.61 232.404C176.538 232.332 176.481 232.247 176.442 232.153C176.403 232.059 176.383 231.958 176.383 231.857C176.383 231.755 176.403 231.654 176.442 231.56C176.481 231.467 176.538 231.381 176.61 231.309L204.629 203.344C204.701 203.27 204.788 203.212 204.883 203.171C204.979 203.131 205.081 203.11 205.185 203.11C205.288 203.11 205.391 203.131 205.486 203.171C205.581 203.212 205.668 203.27 205.74 203.344V203.344C205.814 203.417 205.873 203.503 205.914 203.598C205.954 203.693 205.975 203.795 205.975 203.899C205.975 204.002 205.954 204.105 205.914 204.2C205.873 204.295 205.814 204.381 205.74 204.453L177.707 232.404C177.635 232.477 177.55 232.534 177.456 232.573C177.362 232.612 177.261 232.632 177.159 232.632C177.057 232.632 176.956 232.612 176.861 232.573C176.767 232.534 176.682 232.477 176.61 232.404V232.404Z" fill="#F6B391"></path> <path d="M171.233 232.282C171.16 232.21 171.101 232.123 171.062 232.028C171.022 231.933 171.001 231.831 171.001 231.728C171.001 231.625 171.022 231.522 171.062 231.427C171.101 231.332 171.16 231.246 171.233 231.173L204.504 197.964C204.577 197.891 204.663 197.832 204.759 197.793C204.854 197.753 204.956 197.732 205.06 197.732C205.163 197.732 205.265 197.753 205.361 197.793C205.456 197.832 205.542 197.891 205.615 197.964C205.689 198.036 205.748 198.122 205.789 198.218C205.829 198.313 205.85 198.415 205.85 198.519C205.85 198.622 205.829 198.724 205.789 198.819C205.748 198.915 205.689 199.001 205.615 199.073L172.33 232.282C172.258 232.354 172.173 232.411 172.079 232.45C171.985 232.489 171.884 232.509 171.782 232.509C171.68 232.509 171.579 232.489 171.485 232.45C171.391 232.411 171.305 232.354 171.233 232.282V232.282Z" fill="#F6B391"></path> <path d="M166.601 231.409C166.529 231.337 166.472 231.252 166.433 231.158C166.394 231.064 166.374 230.963 166.374 230.861C166.374 230.76 166.394 230.659 166.433 230.565C166.472 230.471 166.529 230.386 166.601 230.314L203.635 193.352C203.707 193.278 203.793 193.219 203.889 193.179C203.984 193.138 204.087 193.118 204.19 193.118C204.294 193.118 204.396 193.138 204.492 193.179C204.587 193.219 204.674 193.278 204.746 193.352C204.819 193.424 204.878 193.511 204.918 193.606C204.957 193.701 204.978 193.803 204.978 193.906C204.978 194.009 204.957 194.111 204.918 194.207C204.878 194.302 204.819 194.388 204.746 194.461L167.701 231.409C167.629 231.481 167.543 231.539 167.449 231.578C167.354 231.617 167.253 231.637 167.151 231.637C167.049 231.637 166.948 231.617 166.853 231.578C166.759 231.539 166.673 231.481 166.601 231.409V231.409Z" fill="#F6B391"></path> <path d="M162.505 230.009C162.431 229.937 162.373 229.85 162.333 229.755C162.293 229.66 162.273 229.558 162.273 229.455C162.273 229.352 162.293 229.25 162.333 229.154C162.373 229.059 162.431 228.973 162.505 228.9L202.219 189.263C202.291 189.189 202.377 189.13 202.473 189.09C202.568 189.05 202.67 189.029 202.774 189.029C202.878 189.029 202.98 189.05 203.076 189.09C203.171 189.13 203.257 189.189 203.329 189.263V189.263C203.404 189.336 203.463 189.422 203.503 189.517C203.543 189.612 203.564 189.714 203.564 189.818C203.564 189.921 203.543 190.023 203.503 190.119C203.463 190.214 203.404 190.3 203.329 190.372L163.616 230.009C163.543 230.083 163.457 230.142 163.362 230.182C163.266 230.223 163.164 230.243 163.06 230.243C162.957 230.243 162.854 230.223 162.759 230.182C162.663 230.142 162.577 230.083 162.505 230.009V230.009Z" fill="#F6B391"></path> <path d="M158.85 228.166C158.776 228.093 158.718 228.007 158.678 227.912C158.638 227.817 158.618 227.715 158.618 227.611C158.618 227.508 158.638 227.406 158.678 227.311C158.718 227.216 158.776 227.129 158.85 227.057L200.38 185.624C200.453 185.55 200.539 185.492 200.635 185.452C200.73 185.413 200.832 185.392 200.936 185.392C201.039 185.392 201.141 185.413 201.237 185.452C201.332 185.492 201.418 185.55 201.491 185.624V185.624C201.563 185.696 201.62 185.781 201.659 185.875C201.698 185.969 201.719 186.07 201.719 186.171C201.719 186.273 201.698 186.374 201.659 186.468C201.62 186.562 201.563 186.647 201.491 186.719L159.95 228.166C159.804 228.311 159.606 228.392 159.4 228.392C159.194 228.392 158.996 228.311 158.85 228.166Z" fill="#F6B391"></path> <path d="M155.576 225.943C155.501 225.871 155.442 225.785 155.402 225.69C155.362 225.594 155.341 225.492 155.341 225.389C155.341 225.285 155.362 225.183 155.402 225.088C155.442 224.993 155.501 224.906 155.576 224.834L198.153 182.348C198.225 182.275 198.312 182.216 198.407 182.176C198.502 182.137 198.605 182.116 198.708 182.116C198.811 182.116 198.914 182.137 199.009 182.176C199.104 182.216 199.191 182.275 199.264 182.348V182.348C199.336 182.42 199.393 182.505 199.432 182.599C199.471 182.693 199.491 182.794 199.491 182.895C199.491 182.997 199.471 183.098 199.432 183.192C199.393 183.286 199.336 183.371 199.264 183.443L156.673 225.943C156.601 226.015 156.515 226.072 156.421 226.111C156.327 226.15 156.226 226.17 156.124 226.17C156.022 226.17 155.921 226.15 155.827 226.111C155.733 226.072 155.648 226.015 155.576 225.943Z" fill="#F6B391"></path> <path d="M152.648 223.365C152.576 223.294 152.518 223.209 152.479 223.115C152.439 223.022 152.419 222.921 152.419 222.819C152.419 222.718 152.439 222.617 152.479 222.523C152.518 222.429 152.576 222.345 152.648 222.273L195.575 179.427C195.648 179.352 195.734 179.294 195.829 179.253C195.925 179.213 196.027 179.192 196.131 179.192C196.234 179.192 196.337 179.213 196.432 179.253C196.528 179.294 196.614 179.352 196.686 179.427C196.761 179.499 196.82 179.585 196.86 179.68C196.9 179.775 196.921 179.878 196.921 179.981C196.921 180.084 196.9 180.187 196.86 180.282C196.82 180.377 196.761 180.463 196.686 180.535L153.745 223.365C153.674 223.438 153.588 223.495 153.494 223.534C153.4 223.573 153.299 223.594 153.197 223.594C153.095 223.594 152.994 223.573 152.9 223.534C152.806 223.495 152.72 223.438 152.648 223.365Z" fill="#F6B391"></path> <path d="M150.069 220.447C149.995 220.374 149.937 220.288 149.897 220.193C149.857 220.098 149.836 219.995 149.836 219.892C149.836 219.789 149.857 219.687 149.897 219.592C149.937 219.497 149.995 219.41 150.069 219.338L192.648 176.854C192.721 176.78 192.807 176.721 192.902 176.681C192.998 176.641 193.1 176.62 193.204 176.62C193.307 176.62 193.41 176.641 193.505 176.681C193.601 176.721 193.687 176.78 193.759 176.854V176.854C193.831 176.926 193.889 177.011 193.928 177.105C193.967 177.199 193.987 177.3 193.987 177.402C193.987 177.503 193.967 177.604 193.928 177.698C193.889 177.792 193.831 177.877 193.759 177.949L151.166 220.447C151.094 220.519 151.008 220.576 150.914 220.616C150.82 220.655 150.719 220.675 150.617 220.675C150.515 220.675 150.414 220.655 150.32 220.616C150.226 220.576 150.14 220.519 150.069 220.447V220.447Z" fill="#F6B391"></path> <path d="M147.833 217.176C147.759 217.104 147.7 217.018 147.659 216.923C147.619 216.827 147.598 216.725 147.598 216.622C147.598 216.518 147.619 216.416 147.659 216.321C147.7 216.226 147.759 216.139 147.833 216.067L189.374 174.631C189.446 174.559 189.532 174.502 189.626 174.463C189.72 174.424 189.821 174.404 189.923 174.404C190.024 174.404 190.125 174.424 190.219 174.463C190.314 174.502 190.399 174.559 190.471 174.631C190.545 174.703 190.604 174.79 190.645 174.885C190.685 174.98 190.706 175.082 190.706 175.186C190.706 175.289 190.685 175.391 190.645 175.487C190.604 175.582 190.545 175.668 190.471 175.74L148.944 217.176C148.871 217.249 148.785 217.308 148.689 217.347C148.594 217.387 148.492 217.408 148.388 217.408C148.285 217.408 148.183 217.387 148.087 217.347C147.992 217.308 147.905 217.249 147.833 217.176V217.176Z" fill="#F6B391"></path> <path d="M145.994 213.531C145.92 213.459 145.861 213.372 145.821 213.277C145.781 213.182 145.76 213.08 145.76 212.976C145.76 212.873 145.781 212.771 145.821 212.675C145.861 212.58 145.92 212.494 145.994 212.422L185.708 172.785C185.78 172.711 185.867 172.652 185.962 172.612C186.058 172.572 186.16 172.551 186.264 172.551C186.367 172.551 186.47 172.572 186.565 172.612C186.66 172.652 186.747 172.711 186.819 172.785V172.785C186.893 172.857 186.951 172.944 186.991 173.039C187.031 173.134 187.051 173.236 187.051 173.339C187.051 173.442 187.031 173.545 186.991 173.64C186.951 173.735 186.893 173.821 186.819 173.894L147.105 213.531C147.033 213.604 146.946 213.662 146.851 213.702C146.755 213.742 146.653 213.762 146.55 213.762C146.446 213.762 146.344 213.742 146.249 213.702C146.153 213.662 146.067 213.604 145.994 213.531V213.531Z" fill="#F6B391"></path> <path d="M144.589 209.44C144.517 209.368 144.46 209.282 144.421 209.188C144.382 209.095 144.362 208.994 144.362 208.892C144.362 208.79 144.382 208.69 144.421 208.596C144.46 208.502 144.517 208.417 144.589 208.345L181.623 171.385C181.695 171.311 181.781 171.252 181.877 171.211C181.972 171.171 182.075 171.15 182.178 171.15C182.282 171.15 182.385 171.171 182.48 171.211C182.576 171.252 182.662 171.311 182.734 171.385V171.385C182.806 171.457 182.863 171.542 182.902 171.636C182.941 171.73 182.961 171.831 182.961 171.933C182.961 172.034 182.941 172.135 182.902 172.229C182.863 172.323 182.806 172.408 182.734 172.48L145.689 209.44C145.543 209.584 145.345 209.666 145.139 209.666C144.933 209.666 144.735 209.584 144.589 209.44V209.44Z" fill="#F6B391"></path> <path d="M143.717 204.819C143.644 204.746 143.585 204.66 143.545 204.565C143.505 204.47 143.485 204.368 143.485 204.265C143.485 204.161 143.505 204.059 143.545 203.964C143.585 203.869 143.644 203.783 143.717 203.71L176.993 170.515C177.066 170.441 177.152 170.382 177.247 170.342C177.343 170.301 177.445 170.281 177.549 170.281C177.652 170.281 177.755 170.301 177.85 170.342C177.946 170.382 178.032 170.441 178.104 170.515V170.515C178.177 170.587 178.234 170.672 178.273 170.766C178.313 170.86 178.333 170.961 178.333 171.062C178.333 171.164 178.313 171.265 178.273 171.359C178.234 171.453 178.177 171.538 178.104 171.61L144.817 204.819C144.671 204.964 144.473 205.045 144.267 205.045C144.061 205.045 143.863 204.964 143.717 204.819V204.819Z" fill="#F6B391"></path> <path d="M143.592 199.453C143.519 199.38 143.46 199.294 143.42 199.199C143.38 199.104 143.36 199.002 143.36 198.898C143.36 198.795 143.38 198.693 143.42 198.598C143.46 198.503 143.519 198.417 143.592 198.344L171.614 170.379C171.686 170.305 171.772 170.246 171.868 170.206C171.963 170.166 172.066 170.145 172.169 170.145C172.273 170.145 172.375 170.166 172.471 170.206C172.566 170.246 172.653 170.305 172.725 170.379V170.379C172.798 170.452 172.857 170.538 172.897 170.633C172.936 170.728 172.957 170.83 172.957 170.934C172.957 171.037 172.936 171.139 172.897 171.234C172.857 171.329 172.798 171.415 172.725 171.488L144.692 199.453C144.545 199.596 144.348 199.677 144.142 199.677C143.936 199.677 143.739 199.596 143.592 199.453V199.453Z" fill="#F6B391"></path> <path d="M144.733 192.831C144.66 192.758 144.601 192.672 144.562 192.577C144.522 192.482 144.501 192.38 144.501 192.276C144.501 192.173 144.522 192.071 144.562 191.976C144.601 191.881 144.66 191.795 144.733 191.722L164.971 171.527C165.043 171.453 165.13 171.395 165.225 171.355C165.321 171.315 165.423 171.295 165.526 171.295C165.63 171.295 165.732 171.315 165.827 171.355C165.923 171.395 166.009 171.453 166.082 171.527C166.156 171.599 166.215 171.685 166.255 171.78C166.296 171.875 166.316 171.978 166.316 172.081C166.316 172.184 166.296 172.287 166.255 172.382C166.215 172.477 166.156 172.563 166.082 172.635L145.833 192.831C145.687 192.976 145.489 193.057 145.283 193.057C145.077 193.057 144.88 192.976 144.733 192.831V192.831Z" fill="#F6B391"></path> <path d="M148.524 183.548C148.452 183.476 148.394 183.391 148.355 183.297C148.316 183.203 148.296 183.102 148.296 183C148.296 182.899 148.316 182.798 148.355 182.704C148.394 182.61 148.452 182.525 148.524 182.453L155.678 175.31C155.75 175.236 155.837 175.176 155.932 175.136C156.028 175.096 156.13 175.075 156.234 175.075C156.338 175.075 156.44 175.096 156.536 175.136C156.631 175.176 156.717 175.236 156.789 175.31V175.31C156.862 175.382 156.919 175.467 156.959 175.561C156.998 175.655 157.018 175.756 157.018 175.857C157.018 175.959 156.998 176.06 156.959 176.154C156.919 176.248 156.862 176.333 156.789 176.405L149.635 183.548C149.563 183.622 149.477 183.681 149.381 183.721C149.286 183.761 149.183 183.782 149.08 183.782C148.976 183.782 148.874 183.761 148.778 183.721C148.683 183.681 148.597 183.622 148.524 183.548V183.548Z" fill="#F6B391"></path> <path d="M102.287 192.432L98.8016 188.673C98.7496 188.618 98.6866 188.573 98.6166 188.543C98.5466 188.512 98.4711 188.496 98.3947 188.496C98.3183 188.496 98.2428 188.512 98.1728 188.543C98.1028 188.573 98.0398 188.618 97.9879 188.673L94.4914 192.424C94.4394 192.479 94.3764 192.524 94.3064 192.554C94.2364 192.585 94.1609 192.601 94.0845 192.601C94.0082 192.601 93.9326 192.585 93.8626 192.554C93.7926 192.524 93.7296 192.479 93.6777 192.424L90.1812 188.673C90.1292 188.618 90.0664 188.574 89.9967 188.544C89.9269 188.513 89.8517 188.498 89.7757 188.498C89.6997 188.498 89.6245 188.513 89.5547 188.544C89.485 188.574 89.4222 188.618 89.3702 188.673L85.8738 192.432C85.8218 192.488 85.7588 192.532 85.6888 192.563C85.6188 192.593 85.5433 192.609 85.4669 192.609C85.3905 192.609 85.315 192.593 85.245 192.563C85.175 192.532 85.112 192.488 85.06 192.432L81.5636 188.673C81.5116 188.618 81.4488 188.574 81.3791 188.544C81.3093 188.513 81.2341 188.498 81.1581 188.498C81.0821 188.498 81.0069 188.513 80.9371 188.544C80.8674 188.574 80.8046 188.618 80.7526 188.673L77.2561 192.424C77.2042 192.479 77.1412 192.524 77.0712 192.554C77.0012 192.585 76.9256 192.601 76.8493 192.601C76.7729 192.601 76.6974 192.585 76.6274 192.554C76.5574 192.524 76.4944 192.479 76.4424 192.424L72.9459 188.673C72.894 188.618 72.831 188.573 72.761 188.543C72.691 188.512 72.6155 188.496 72.5391 188.496C72.4627 188.496 72.3872 188.512 72.3172 188.543C72.2472 188.573 72.1842 188.618 72.1322 188.673L69.044 192C68.992 192.055 68.9291 192.1 68.859 192.13C68.789 192.161 68.7135 192.177 68.6371 192.177C68.5608 192.177 68.4852 192.161 68.4152 192.13C68.3452 192.1 68.2823 192.055 68.2303 192V192C68.122 191.88 68.062 191.724 68.062 191.563C68.062 191.402 68.122 191.246 68.2303 191.126L72.1183 186.941C72.1703 186.885 72.2333 186.841 72.3033 186.81C72.3733 186.78 72.4488 186.764 72.5252 186.764C72.6016 186.764 72.6771 186.78 72.7471 186.81C72.8171 186.841 72.8801 186.885 72.9321 186.941L76.4285 190.691C76.4805 190.747 76.5435 190.792 76.6135 190.822C76.6835 190.853 76.759 190.868 76.8354 190.868C76.9118 190.868 76.9873 190.853 77.0573 190.822C77.1273 190.792 77.1903 190.747 77.2423 190.691L80.7387 186.941C80.7907 186.886 80.8535 186.841 80.9232 186.811C80.993 186.781 81.0682 186.765 81.1442 186.765C81.2202 186.765 81.2954 186.781 81.3652 186.811C81.4349 186.841 81.4977 186.886 81.5497 186.941L85.0684 190.688C85.1204 190.744 85.1833 190.789 85.2533 190.819C85.3233 190.85 85.3989 190.865 85.4752 190.865C85.5516 190.865 85.6271 190.85 85.6971 190.819C85.7671 190.789 85.8301 190.744 85.8821 190.688L89.3786 186.938C89.4305 186.883 89.4933 186.839 89.5631 186.808C89.6328 186.778 89.708 186.763 89.784 186.763C89.8601 186.763 89.9353 186.778 90.005 186.808C90.0748 186.839 90.1376 186.883 90.1895 186.938L93.6777 190.688C93.7296 190.744 93.7926 190.789 93.8626 190.819C93.9326 190.85 94.0082 190.865 94.0845 190.865C94.1609 190.865 94.2364 190.85 94.3064 190.819C94.3764 190.789 94.4394 190.744 94.4914 190.688L97.9879 186.938C98.0398 186.882 98.1028 186.838 98.1728 186.807C98.2428 186.777 98.3183 186.761 98.3947 186.761C98.4711 186.761 98.5466 186.777 98.6166 186.807C98.6866 186.838 98.7496 186.882 98.8016 186.938L102.287 190.688C102.339 190.744 102.402 190.788 102.471 190.818C102.541 190.848 102.616 190.864 102.692 190.864C102.768 190.864 102.844 190.848 102.913 190.818C102.983 190.788 103.046 190.744 103.098 190.688L106.189 187.362C106.241 187.306 106.304 187.262 106.374 187.231C106.444 187.201 106.519 187.185 106.596 187.185C106.672 187.185 106.748 187.201 106.818 187.231C106.888 187.262 106.951 187.306 107.003 187.362C107.11 187.483 107.169 187.638 107.169 187.799C107.169 187.96 107.11 188.115 107.003 188.235L103.12 192.432C103.068 192.491 103.004 192.538 102.932 192.571C102.86 192.603 102.782 192.62 102.704 192.62C102.625 192.62 102.547 192.603 102.475 192.571C102.403 192.538 102.339 192.491 102.287 192.432V192.432Z" fill="#F6E1AE"></path> <path d="M218.668 125.653C219.365 125.653 220.046 125.858 220.625 126.244C221.205 126.63 221.656 127.179 221.923 127.821C222.19 128.463 222.26 129.17 222.125 129.852C221.989 130.534 221.654 131.16 221.162 131.652C220.669 132.144 220.042 132.479 219.359 132.615C218.676 132.751 217.967 132.681 217.324 132.415C216.68 132.149 216.13 131.699 215.743 131.121C215.356 130.543 215.149 129.863 215.149 129.168C215.151 128.237 215.522 127.344 216.181 126.685C216.841 126.027 217.735 125.655 218.668 125.653V125.653ZM218.668 123.311C217.507 123.312 216.373 123.656 215.408 124.299C214.444 124.943 213.692 125.858 213.248 126.928C212.805 127.999 212.689 129.176 212.916 130.312C213.142 131.448 213.701 132.491 214.522 133.31C215.343 134.129 216.389 134.687 217.527 134.912C218.665 135.138 219.845 135.022 220.917 134.579C221.989 134.135 222.905 133.385 223.55 132.422C224.195 131.458 224.539 130.326 224.539 129.168C224.538 127.614 223.919 126.125 222.818 125.026C221.717 123.928 220.225 123.311 218.668 123.311V123.311Z" fill="#F2543B"></path> <path d="M139.779 70.9651L142.834 73.6426C143.964 74.635 145.63 72.9857 144.5 71.9796L141.445 69.2992C140.312 68.3041 138.646 69.9561 139.779 70.9623V70.9651Z" fill="#F6E1AE"></path> <path d="M132.453 64.5315L135.508 67.2119C136.638 68.2042 138.304 66.555 137.174 65.5488C136.156 64.6563 135.137 63.7628 134.119 62.8685C132.986 61.8789 131.323 63.5282 132.453 64.5315Z" fill="#F6E1AE"></path> <path d="M135.766 69.568L133.08 72.617C132.086 73.7479 133.741 75.411 134.747 74.2801L137.432 71.2311C138.424 70.1029 136.771 68.4398 135.766 69.568Z" fill="#F6E1AE"></path> <path d="M142.212 62.2476L139.526 65.2966C138.532 66.4275 140.184 68.0879 141.193 66.9597C142.09 65.9452 142.987 64.9289 143.881 63.9107C144.872 62.7826 143.22 61.1195 142.215 62.2476H142.212Z" fill="#F6E1AE"></path> </g> <path d="M132.386 154.5L46.0239 170.475L132.386 186.453L218.75 170.475L132.386 154.5Z" fill="#FFCCAA"></path> <path d="M218.75 170.476V260.69L132.386 276.665V186.453L218.75 170.476Z" fill="#B84634"></path> <path d="M46.0239 170.476L132.386 186.453V276.665L46.0239 260.69V170.476Z" fill="#F58370"></path> <path d="M131.877 176.036C145.763 176.036 171.421 175.068 178.687 173.13C181.094 172.482 179.623 165.058 176.136 163.369C179.583 155.289 179.653 150.135 168.676 144.398C165.41 142.689 161.608 138.986 159.983 135.655C157.977 131.553 165.62 128.844 161.879 127.005C159.304 125.74 147.391 120.282 147.391 81.2921C147.391 77.0543 156.593 81.6264 156.526 75.5893C156.476 70.7527 151.474 73.5227 151.721 71.0434C152.39 64.271 144.941 66.6835 142.995 65.5208C142.563 65.265 138.725 62.8729 146.672 56.0539C158.328 46.0377 151.474 32.955 147.207 28.0341C143.245 23.4475 133.683 9.78633 135.913 8.94632C140.032 7.39128 140.129 0.0898438 131.877 0.0898438C123.626 0.0898438 123.722 7.39128 127.842 8.94632C130.072 9.78633 120.509 23.4475 116.557 28.0079C112.291 32.9289 105.437 46.0116 117.092 56.0278C125.026 62.8467 121.188 65.2389 120.77 65.4946C118.824 66.6573 111.371 64.2564 112.044 71.0172C112.291 73.4966 107.289 70.7266 107.239 75.5632C107.172 81.6002 116.373 77.0165 116.373 81.266C116.373 120.255 104.464 125.714 101.889 126.978C98.1445 128.818 105.778 131.527 103.782 135.629C102.16 138.96 98.3585 142.663 95.0885 144.372C84.1017 150.121 84.1652 155.274 87.6191 163.352C84.1318 165.041 82.6606 172.464 85.068 173.112C92.3334 175.068 117.992 176.036 131.877 176.036Z" fill="#105074"></path> <path d="M131.877 176.037C145.763 176.037 171.421 175.069 178.687 173.13C181.094 172.482 179.623 165.058 176.136 163.37C179.583 155.289 179.653 150.136 168.676 144.398C165.41 142.689 161.608 138.986 159.983 135.655C157.977 131.554 165.62 128.845 161.879 127.005C159.304 125.74 147.391 120.282 147.391 81.2924C147.391 77.0545 156.593 81.6266 156.526 75.5896C156.476 70.753 151.474 73.523 151.721 71.0436C152.39 64.2712 144.94 66.6837 142.995 65.5211C142.563 65.2653 138.725 62.8731 146.672 56.0542C158.328 46.038 151.474 32.9553 147.207 28.0344C143.255 23.4739 133.696 9.81566 135.92 8.97274C138.08 8.15598 139.022 5.85975 138.541 3.94429C137.779 0.935932 134.652 0.409834 131.69 0C132.267 0.442264 132.737 0.979523 133.073 1.58071C133.409 2.18189 133.605 2.83507 133.649 3.50248C133.696 4.06763 133.552 4.63239 133.235 5.12728C132.916 5.54698 132.477 5.8875 131.961 6.11553C130.956 6.57961 129.814 6.77221 128.682 6.66864C127.551 6.56507 126.48 6.17005 125.608 5.53421C125.789 5.67082 125.906 7.22005 126.177 7.62116C126.578 8.20249 127.133 8.35944 127.598 8.84194C128.601 9.87089 127.845 10.6702 127.738 11.8619C127.598 13.446 128.52 15.0389 129.637 16.2219C131.145 17.8438 133.128 19.1285 134.418 20.8724C135.378 22.1775 135.91 23.6802 136.425 25.1597L138.661 31.5543C139.537 34.054 140.42 36.5769 140.667 39.1813C140.915 41.7856 140.447 44.5149 138.822 46.7152C137.304 48.7702 134.856 50.2264 132.212 51.0548C129.567 51.8832 126.722 52.1273 123.91 52.1361C122.467 52.1558 121.025 52.0585 119.603 51.8454C116.664 51.3716 114.254 50.145 111.943 48.5493C111.231 50.7264 115.527 54.6387 117.122 56.0106C120.84 59.2079 124.448 61.5332 129.691 62.6551C130.236 62.7389 130.762 62.9021 131.245 63.1376C131.484 63.2592 131.679 63.4368 131.808 63.6501C131.936 63.8634 131.993 64.1039 131.971 64.3439C131.824 65.1403 130.674 65.399 129.751 65.4716C128.123 65.6024 126.514 65.4164 124.886 65.5559C124.752 65.5559 124.588 65.5966 124.552 65.71C124.54 65.76 124.547 65.812 124.572 65.8582C124.849 66.4832 126.066 66.4744 126.698 66.4773C129.471 66.4967 132.242 66.4802 135.01 66.4279C135.243 66.4151 135.477 66.4287 135.706 66.4686C136.618 66.6721 136.966 67.6167 137.167 68.419C137.319 68.8121 137.319 69.2379 137.167 69.631C136.946 70.0234 136.448 70.2298 135.976 70.3809C133.706 71.125 131.516 71.032 129.146 71.2529C128.477 71.314 127.096 71.2064 126.588 71.6889C125.585 72.6336 128.975 72.4679 129.36 72.4679H132.827C134.064 72.4679 135.335 72.4679 136.485 72.8661C137.635 73.2643 138.655 74.1421 138.738 75.2146C138.747 75.6263 138.649 76.0344 138.451 76.4084C138.253 76.7824 137.96 77.1126 137.595 77.3743C136.858 77.8936 135.997 78.2622 135.074 78.4526C133.403 78.8131 131.692 79.0168 129.972 79.0601C127.176 79.1967 124.378 79.2403 121.579 79.2403C120.707 79.2403 116.059 78.8363 115.939 79.7257C115.872 80.2373 116.36 80.743 116.36 81.2837C116.36 83.513 115.999 85.2832 117.296 87.3033C120.519 92.3288 126.822 93.4973 131.045 97.4968C132.382 98.7554 133.292 100.296 134.161 101.831C138.249 109.065 141.559 116.613 144.048 124.377C144.432 125.578 144.773 126.953 143.998 128.002C143.499 128.679 142.633 129.071 141.788 129.397C136.18 131.548 129.895 131.964 123.769 131.804C117.644 131.644 111.545 130.932 105.417 130.964C105.316 132.786 107.336 134.1 109.165 134.989C111.84 136.297 114.688 137.472 117.734 137.855C120.409 138.192 123.107 137.916 125.789 138.047C134.047 138.454 141.423 142.698 147.492 147.572C150.049 149.633 152.53 151.932 153.63 154.81C156.64 162.701 147.104 165.968 139.805 166.256C134.676 166.459 129.584 165.587 124.525 164.82C115.163 163.402 105.567 162.405 96.2052 163.803C83.1855 165.747 82.3596 173.511 98.5022 174.862C100.01 174.99 101.655 175.06 102.983 175.153C106.433 175.365 109.887 175.528 113.347 175.662C119.516 175.883 125.698 176.037 131.877 176.037Z" fill="#063651"></path> <defs> <clipPath id="clip0"> <rect y="17" width="292" height="260.936" fill="white"></rect> </clipPath> </defs> </svg> 