<?xml version="1.0" encoding="UTF-8"?> <svg xmlns="http://www.w3.org/2000/svg" width="120" height="120" viewBox="0 0 120 120" fill="none"> <path d="M116.25 86.25H90L86.25 90H3.75V37.5C3.75 33.3581 7.10812 30 11.25 30H108.75C112.892 30 116.25 33.3581 116.25 37.5V86.25Z" fill="#6DA3C1"></path> <path d="M43.125 101.25H76.875V108.75H43.125V101.25Z" fill="#969FAA"></path> <path d="M91.875 116.25H28.125C28.125 114.188 28.9688 112.312 30.3188 110.944C31.6875 109.594 33.5625 108.75 35.625 108.75H43.125H76.875H84.375C88.5187 108.75 91.875 112.106 91.875 116.25Z" fill="#969FAA"></path> <path d="M116.25 86.25V93.75C116.25 97.8938 112.894 101.25 108.75 101.25H76.875H43.125H11.25C7.10625 101.25 3.75 97.8938 3.75 93.75V90H86.25L90 86.25H116.25Z" fill="#CCD1D9"></path> <path d="M86.25 26.25H101.25V60H86.25V26.25Z" fill="#F6E1AE"></path> <path d="M81.2494 26.25H86.25V30V60H81.2494H78.75V56.25V30V26.25H81.2494Z" fill="#E6E9ED"></path> <path d="M53.3438 33.75L58.125 60H50.625H26.25H24.375L25.7437 52.5L27.0937 45L28.4625 37.5L29.8312 30L31.875 18.75H50.625L51.9937 26.25H43.125C42.0938 26.25 41.25 27.0938 41.25 28.125C41.25 31.2375 43.7625 33.75 46.875 33.75H53.3438Z" fill="#F2543B"></path> <path d="M25.7437 52.5L24.375 60H20.625C18.5625 60 16.875 58.3125 16.875 56.25C16.875 54.1875 18.5625 52.5 20.625 52.5H25.7437Z" fill="#FFCCAA"></path> <path d="M27.0937 45L25.7437 52.5H20.625C18.5625 52.5 16.875 50.8125 16.875 48.75C16.875 46.6875 18.5625 45 20.625 45H27.0937Z" fill="#FFCCAA"></path> <path d="M28.4625 37.5L27.0938 45H20.625C18.5625 45 16.875 43.3125 16.875 41.25C16.875 39.1875 18.5625 37.5 20.625 37.5H28.4625Z" fill="#FFCCAA"></path> <path d="M29.8312 30L28.4625 37.5H20.625C18.5625 37.5 16.875 35.8125 16.875 33.75C16.875 31.6875 18.5625 30 20.625 30H29.8312Z" fill="#FFCCAA"></path> <path d="M53.3438 33.75H46.875C43.7625 33.75 41.25 31.2375 41.25 28.125C41.25 27.0938 42.0938 26.25 43.125 26.25H51.9937H64.7062C67.7062 26.25 70.5562 27.4313 72.675 29.55L73.125 30H78.75V56.25H73.125L72.675 56.7C70.5562 58.8187 67.7062 60 64.7062 60H58.125L53.3438 33.75Z" fill="#FFCCAA"></path> <path d="M65.625 67.5V71.25H16.875V67.5C16.875 63.3562 20.2312 60 24.375 60H26.25H50.625H58.125C62.2687 60 65.625 63.3562 65.625 67.5Z" fill="#F2543B"></path> <path d="M60 3.75V11.25C60 15.3938 56.6437 18.75 52.5 18.75H50.625H31.875H30C25.8562 18.75 22.5 15.3938 22.5 11.25V3.75H30V7.5C30 8.53125 30.4125 9.46875 31.1063 10.1437C31.7812 10.8375 32.7188 11.25 33.75 11.25C35.8125 11.25 37.5 9.5625 37.5 7.5V3.75H45V7.5C45 8.53125 45.4125 9.46875 46.1063 10.1437C46.7812 10.8375 47.7188 11.25 48.75 11.25C50.8125 11.25 52.5 9.5625 52.5 7.5V3.75H60Z" fill="#F2543B"></path> <path d="M33.7527 39.2935L34.4239 35.6035L38.1158 36.275L37.4445 39.965L33.7527 39.2935Z" fill="#105074"></path> <path d="M32.4065 46.666L33.0777 42.976L36.7659 43.6469L36.0947 47.3369L32.4065 46.666Z" fill="#105074"></path> <path d="M31.0697 54.0552L31.741 50.3652L35.4328 51.0368L34.7615 54.7268L31.0697 54.0552Z" fill="#105074"></path> <path d="M108.75 28.125H103.125V24.375H76.875V28.125H73.9013C71.4338 25.7063 68.175 24.375 64.7156 24.375H53.5537L52.8656 20.5875C57.8606 20.3925 61.875 16.2938 61.875 11.25V1.875H50.625V7.5C50.625 8.535 49.785 9.375 48.75 9.375C47.715 9.375 46.875 8.535 46.875 7.5V1.875H35.625V7.5C35.625 8.535 34.785 9.375 33.75 9.375C32.715 9.375 31.875 8.535 31.875 7.5V1.875H20.625V11.25C20.625 16.2938 24.6394 20.3925 29.6363 20.5875L28.2656 28.125H20.625H11.25C6.08063 28.125 1.875 32.3306 1.875 37.5V93.75C1.875 98.9194 6.08063 103.125 11.25 103.125H41.25V106.875H35.625C30.4556 106.875 26.25 111.081 26.25 116.25V118.125H93.75V116.25C93.75 111.081 89.5444 106.875 84.375 106.875H78.75V103.125H108.75C113.919 103.125 118.125 98.9194 118.125 93.75V37.5C118.125 32.3306 113.919 28.125 108.75 28.125ZM80.625 28.125H84.375V31.875H88.125V28.125H99.375V58.125H88.125V35.625H84.375V58.125H80.625V28.125ZM71.3456 30.8719L72.3487 31.875H76.875V54.375H72.3487L71.3456 55.3781C69.5738 57.1481 67.2206 58.125 64.7156 58.125H59.6887L55.5975 35.625H59.2238C61.6912 38.0438 64.95 39.375 68.4094 39.375H69.375V35.625H68.4094C65.9044 35.625 63.5494 34.6481 61.7794 32.8781L60.7763 31.875H46.875C44.8069 31.875 43.125 30.1931 43.125 28.125H64.7156C67.2206 28.125 69.5738 29.1019 71.3456 30.8719ZM63.75 67.5V69.375H18.75V67.5C18.75 64.3988 21.2738 61.875 24.375 61.875H26.25H50.625H58.125C61.2262 61.875 63.75 64.3988 63.75 67.5ZM24.1744 50.625H20.625C19.59 50.625 18.75 49.785 18.75 48.75C18.75 47.715 19.59 46.875 20.625 46.875H24.8569L24.1744 50.625ZM25.5375 43.125H20.625C19.59 43.125 18.75 42.285 18.75 41.25C18.75 40.215 19.59 39.375 20.625 39.375H26.22L25.5375 43.125ZM23.4937 54.375L22.8113 58.125H20.625C19.59 58.125 18.75 57.285 18.75 56.25C18.75 55.215 19.59 54.375 20.625 54.375H23.4937ZM43.125 24.375C41.0569 24.375 39.375 26.0569 39.375 28.125C39.375 32.2613 42.7388 35.625 46.875 35.625H51.7875L55.8788 58.125H50.625H26.6213L33.4388 20.625H49.0613L49.7438 24.375H43.125ZM24.375 11.25V5.625H28.125V7.5C28.125 10.6013 30.6488 13.125 33.75 13.125C36.8512 13.125 39.375 10.6013 39.375 7.5V5.625H43.125V7.5C43.125 10.6013 45.6488 13.125 48.75 13.125C51.8512 13.125 54.375 10.6013 54.375 7.5V5.625H58.125V11.25C58.125 14.3513 55.6012 16.875 52.5 16.875H30C26.8988 16.875 24.375 14.3513 24.375 11.25ZM27.5831 31.875L26.9006 35.625H20.625C19.59 35.625 18.75 34.785 18.75 33.75C18.75 32.715 19.59 31.875 20.625 31.875H27.5831ZM11.25 31.875H15.345C15.135 32.4638 15 33.09 15 33.75C15 35.1956 15.5644 36.5025 16.4625 37.5C15.5644 38.4975 15 39.8044 15 41.25C15 42.6956 15.5644 44.0025 16.4625 45C15.5644 45.9975 15 47.3044 15 48.75C15 50.1956 15.5644 51.5025 16.4625 52.5C15.5644 53.4975 15 54.8044 15 56.25C15 58.2544 16.0613 60.0056 17.6438 61.0012C16.0144 62.6887 15 64.9744 15 67.5V73.125H67.5V67.5C67.5 65.3625 66.7538 63.4144 65.5444 61.8356C68.6925 61.6406 71.6325 60.3488 73.9013 58.125H76.875V61.875H103.125V31.875H108.75C111.851 31.875 114.375 34.3988 114.375 37.5V84.375H89.2237L85.4737 88.125H5.625V37.5C5.625 34.3988 8.14875 31.875 11.25 31.875ZM89.6794 114.375H30.3206C31.095 112.193 33.18 110.625 35.625 110.625H84.375C86.82 110.625 88.905 112.193 89.6794 114.375ZM75 106.875H45V103.125H75V106.875ZM108.75 99.375H11.25C8.14875 99.375 5.625 96.8512 5.625 93.75V91.875H87.0263L90.7763 88.125H114.375V93.75C114.375 96.8512 111.851 99.375 108.75 99.375Z" fill="#105074"></path> <path d="M106.875 91.875H110.625V95.625H106.875V91.875Z" fill="#105074"></path> <path d="M99.375 91.875H103.125V95.625H99.375V91.875Z" fill="#105074"></path> <path d="M91.875 91.875H95.625V95.625H91.875V91.875Z" fill="#105074"></path> <path d="M106.875 65.625H110.625V69.375H106.875V65.625Z" fill="#105074"></path> <path d="M99.375 65.625H103.125V69.375H99.375V65.625Z" fill="#105074"></path> <path d="M76.875 65.625H95.625V69.375H76.875V65.625Z" fill="#105074"></path> <path d="M76.875 73.125H110.625V76.875H76.875V73.125Z" fill="#105074"></path> <path d="M9.375 80.625H13.125V84.375H9.375V80.625Z" fill="#105074"></path> <path d="M16.875 80.625H20.625V84.375H16.875V80.625Z" fill="#105074"></path> <path d="M24.375 80.625H28.125V84.375H24.375V80.625Z" fill="#105074"></path> </svg> 