<?xml version="1.0" encoding="UTF-8"?> <svg xmlns="http://www.w3.org/2000/svg" width="87" height="87" viewBox="0 0 87 87" fill="none"> <g clip-path="url(#clip0)"> <path d="M35.49 6.28711L35.49 23.1824C24.6478 24.169 19.2282 32.0184 19.2282 46.7304L31.9453 46.7304C35.6991 46.7304 38.7422 49.7735 38.7422 53.5273L38.7422 73.916C38.7422 77.6698 35.6991 80.7129 31.9453 80.7129L8.49609 80.7129C4.74235 80.7129 1.69922 77.6698 1.69922 73.916L1.69922 47.892C1.69921 21.4236 12.9618 7.55422 35.49 6.28711Z" fill="#6DA3C1"></path> <path d="M82.0486 6.28711L82.0486 23.1824C71.2064 24.169 65.7868 32.0184 65.7868 46.7304L78.5039 46.7304C82.2576 46.7304 85.3008 49.7735 85.3008 53.5273L85.3008 73.916C85.3008 77.6698 82.2577 80.7129 78.5039 80.7129L55.0547 80.7129C51.3009 80.7129 48.2578 77.6698 48.2578 73.916L48.2578 47.892C48.2578 21.4236 59.5204 7.55422 82.0486 6.28711Z" fill="#6DA3C1"></path> <path d="M82.0488 4.58789C82.4818 4.58789 82.8996 4.7534 83.216 5.05229C83.5555 5.37327 83.7479 5.81982 83.7479 6.28711L83.7479 23.1826C83.7479 24.0614 83.0779 24.7952 82.2026 24.8749C72.7145 25.7381 67.8981 32.3372 67.5113 45.0313L78.5039 45.0313C83.1886 45.0313 87 48.8427 87 53.5274L87 73.916C87 78.6008 83.1887 82.4121 78.5039 82.4121L55.0547 82.4121C50.3699 82.4121 46.5586 78.6008 46.5586 73.916L46.5586 68.4785C46.5586 67.5402 47.3193 66.7793 48.2578 66.7793C49.1963 66.7793 49.957 67.5402 49.957 68.4785L49.957 73.916C49.957 76.7269 52.2438 79.0137 55.0547 79.0137L78.5039 79.0137C81.3148 79.0137 83.6016 76.7269 83.6016 73.916L83.6016 53.5274C83.6016 50.7166 81.3148 48.4298 78.5039 48.4298L65.7868 48.4298C64.8483 48.4298 64.0876 47.6689 64.0876 46.7306C64.0876 39.0572 65.5565 33.0394 68.4535 28.8439C71.1847 24.889 75.1818 22.4836 80.3493 21.6798L80.3493 8.11394C59.9034 9.94332 49.957 22.9741 49.957 47.8921L49.957 53.9786C49.957 54.9169 49.1963 55.6778 48.2578 55.6778C47.3193 55.6778 46.5586 54.9169 46.5586 53.9786L46.5586 47.8921C46.5586 34.3193 49.5287 23.7804 55.3862 16.5679C61.3059 9.27892 70.2443 5.24923 81.9533 4.59061C81.9851 4.58874 82.017 4.58789 82.0488 4.58789Z" fill="white"></path> <path d="M8.49609 82.4121L31.9453 82.4121C36.6301 82.4121 40.4414 78.6008 40.4414 73.916L40.4414 53.5274C40.4414 48.8427 36.6301 45.0313 31.9453 45.0313L20.9527 45.0313C21.3395 32.3372 26.1559 25.7381 35.644 24.8749C36.5191 24.7952 37.1893 24.0614 37.1893 23.1826L37.1893 6.28711C37.1893 5.81982 36.9969 5.37327 36.6574 5.05229C36.341 4.75323 35.9232 4.58789 35.4902 4.58789C35.4584 4.58789 35.4265 4.58874 35.3947 4.59061C23.6857 5.24923 14.7473 9.27892 8.8276 16.5679C2.97006 23.7802 -4.20441e-06 34.3193 -3.01783e-06 47.8921L-7.42752e-07 73.916C-3.33199e-07 78.6008 3.81135 82.4121 8.49609 82.4121ZM3.39843 47.8921C3.39843 22.9741 13.3448 9.94332 33.7908 8.11394L33.7908 21.6798C28.6232 22.4836 24.6261 24.889 21.8951 28.8439C18.9981 33.0393 17.5291 39.0571 17.5291 46.7306C17.5291 47.6689 18.2899 48.4298 19.2284 48.4298L31.9453 48.4298C34.7562 48.4298 37.043 50.7166 37.043 53.5274L37.043 73.916C37.043 76.7269 34.7562 79.0137 31.9453 79.0137L11.5547 79.0137L11.5547 66.4337C11.5547 65.4954 10.7939 64.7345 9.85547 64.7345C8.91699 64.7345 8.15625 65.4954 8.15625 66.4337L8.15625 79.0011C5.50343 78.8254 3.39844 76.6125 3.39844 73.916L3.39843 47.8921Z" fill="white"></path> <path d="M9.85547 58.8271C10.7939 58.8271 11.5547 59.588 11.5547 60.5263C11.5547 61.4647 10.7939 62.2339 9.85547 62.2339C8.91699 62.2339 8.15625 61.4815 8.15625 60.5432L8.15625 60.5263C8.15625 59.588 8.91716 58.8271 9.85547 58.8271Z" fill="white"></path> <path d="M48.2578 59.4938C49.1963 59.4938 49.957 60.2547 49.957 61.193L49.957 61.2285C49.957 62.1668 49.1963 62.9277 48.2578 62.9277C47.3193 62.9277 46.5586 62.1668 46.5586 61.2285L46.5586 61.193C46.5586 60.2547 47.3193 59.4938 48.2578 59.4938Z" fill="white"></path> </g> <defs> <clipPath id="clip0"> <rect x="87" y="87" width="87" height="87" transform="rotate(180 87 87)" fill="white"></rect> </clipPath> </defs> </svg> 