<?xml version="1.0" encoding="UTF-8"?> <svg xmlns="http://www.w3.org/2000/svg" width="87" height="87" viewBox="0 0 87 87" fill="none"> <path d="M51.5099 80.7129V63.8176C62.3522 62.831 67.7718 54.9816 67.7718 40.2696H55.0547C51.3009 40.2696 48.2578 37.2265 48.2578 33.4727V13.084C48.2578 9.33024 51.3009 6.28711 55.0547 6.28711H78.5039C82.2577 6.28711 85.3008 9.33024 85.3008 13.084V39.108C85.3008 65.5764 74.0382 79.4458 51.5099 80.7129Z" fill="#6DA3C1"></path> <path d="M4.95135 80.7129V63.8176C15.7936 62.831 21.2132 54.9816 21.2132 40.2696H8.49609C4.74235 40.2696 1.69922 37.2265 1.69922 33.4727V13.084C1.69922 9.33024 4.74235 6.28711 8.49609 6.28711H31.9453C35.6991 6.28711 38.7422 9.33024 38.7422 13.084V39.108C38.7422 65.5764 27.4796 79.4458 4.95135 80.7129Z" fill="#6DA3C1"></path> <path d="M4.95118 82.4121C4.51822 82.4121 4.10038 82.2466 3.78399 81.9477C3.44449 81.6267 3.25213 81.1802 3.25213 80.7129V63.8174C3.25213 62.9386 3.92214 62.2048 4.7974 62.1251C14.2855 61.2619 19.1019 54.6628 19.4887 41.9687H8.49609C3.81135 41.9687 0 38.1573 0 33.4726V13.084C0 8.39924 3.81135 4.58789 8.49609 4.58789H31.9453C36.6301 4.58789 40.4414 8.39924 40.4414 13.084V18.5215C40.4414 19.4598 39.6807 20.2207 38.7422 20.2207C37.8037 20.2207 37.043 19.4598 37.043 18.5215V13.084C37.043 10.2731 34.7562 7.98633 31.9453 7.98633H8.49609C5.68525 7.98633 3.39844 10.2731 3.39844 13.084V33.4726C3.39844 36.2834 5.68525 38.5702 8.49609 38.5702H21.2132C22.1517 38.5702 22.9124 39.3311 22.9124 40.2694C22.9124 47.9428 21.4435 53.9606 18.5465 58.1561C15.8153 62.111 11.8182 64.5164 6.65074 65.3202V78.8861C27.0966 77.0567 37.043 64.0259 37.043 39.1079V33.0214C37.043 32.0831 37.8037 31.3222 38.7422 31.3222C39.6807 31.3222 40.4414 32.0831 40.4414 33.0214V39.1079C40.4414 52.6807 37.4713 63.2196 31.6138 70.4321C25.6941 77.7211 16.7557 81.7508 5.04668 82.4094C5.0149 82.4113 4.98296 82.4121 4.95118 82.4121Z" fill="white"></path> <path d="M78.5039 4.58789H55.0547C50.3699 4.58789 46.5586 8.39924 46.5586 13.084V33.4726C46.5586 38.1573 50.3699 41.9687 55.0547 41.9687H66.0473C65.6605 54.6628 60.8441 61.2619 51.356 62.1251C50.4809 62.2048 49.8107 62.9386 49.8107 63.8174V80.7129C49.8107 81.1802 50.0031 81.6267 50.3426 81.9477C50.659 82.2468 51.0768 82.4121 51.5098 82.4121C51.5416 82.4121 51.5735 82.4113 51.6053 82.4094C63.3143 81.7508 72.2527 77.7211 78.1724 70.4321C84.0299 63.2198 87 52.6807 87 39.1079V13.084C87 8.39924 83.1887 4.58789 78.5039 4.58789ZM83.6016 39.1079C83.6016 64.0259 73.6552 77.0567 53.2092 78.8861V65.3202C58.3768 64.5164 62.3739 62.111 65.1049 58.1561C68.0019 53.9607 69.4709 47.9429 69.4709 40.2694C69.4709 39.3311 68.7101 38.5702 67.7716 38.5702H55.0547C52.2438 38.5702 49.957 36.2834 49.957 33.4726V13.084C49.957 10.2731 52.2438 7.98633 55.0547 7.98633H75.4453V20.5663C75.4453 21.5046 76.2061 22.2655 77.1445 22.2655C78.083 22.2655 78.8438 21.5046 78.8438 20.5663V7.9989C81.4966 8.1746 83.6016 10.3875 83.6016 13.084V39.1079Z" fill="white"></path> <path d="M77.1445 28.1729C76.2061 28.1729 75.4453 27.412 75.4453 26.4737C75.4453 25.5353 76.2061 24.7661 77.1445 24.7661C78.083 24.7661 78.8438 25.5185 78.8438 26.4568V26.4737C78.8438 27.412 78.0828 28.1729 77.1445 28.1729Z" fill="white"></path> <path d="M38.7422 27.5062C37.8037 27.5062 37.043 26.7453 37.043 25.807V25.7715C37.043 24.8332 37.8037 24.0723 38.7422 24.0723C39.6807 24.0723 40.4414 24.8332 40.4414 25.7715V25.807C40.4414 26.7453 39.6807 27.5062 38.7422 27.5062Z" fill="white"></path> </svg> 