<?xml version="1.0" encoding="UTF-8"?> <svg xmlns="http://www.w3.org/2000/svg" width="56" height="56" viewBox="0 0 56 56" fill="none"> <path d="M45.5391 41.0886H41.4934C40.3863 41.0886 39.3088 40.6334 38.537 39.8398L34.4917 35.6803C33.8882 35.0597 33.1349 34.6186 32.302 34.3963V38.2631C32.302 39.821 31.0345 41.0886 29.4765 41.0886C25.864 41.0886 22.2942 39.8799 19.4247 37.6852C18.3393 36.855 17.3041 35.9395 16.3478 34.9641C15.9249 34.5329 15.9317 33.8403 16.3631 33.4173C16.7946 32.9944 17.487 33.0015 17.9099 33.4327C18.7937 34.3341 19.7506 35.1804 20.7537 35.9476C23.2439 37.8522 26.3417 38.9011 29.4766 38.9011C29.8285 38.9011 30.1146 38.6148 30.1146 38.2631V34.1762C30.1146 33.5629 30.3887 32.9908 30.8667 32.6063C31.3446 32.2219 31.9626 32.077 32.5612 32.2085C33.8968 32.5017 35.1066 33.1749 36.0599 34.1551L40.1052 38.3146C40.4676 38.6872 40.9736 38.901 41.4934 38.901H45.5391C45.5646 38.901 45.6425 38.901 45.693 38.8107C45.7435 38.7205 45.703 38.6541 45.6896 38.6323L45.1346 37.7257C44.1493 36.1165 42.9568 34.6406 41.5902 33.3394L39.7348 31.5725C38.768 30.6519 38.6229 29.1905 39.3898 28.0977L41.9234 24.4874C42.2382 24.0388 42.5288 23.5664 42.787 23.0833L44.952 19.0325C44.9594 19.0183 44.9709 18.9971 44.9502 18.9627C44.9297 18.9283 44.9055 18.9282 44.8895 18.9282L40.2034 18.9229H40.203C40.0894 18.9229 39.9865 18.99 39.9409 19.0941L39.4445 20.2251C38.053 23.3953 36.144 26.2808 33.7704 28.8015C33.6138 28.9676 33.4293 29.0999 33.2215 29.1946L32.7706 29.4004C32.1867 29.667 31.5161 29.619 30.9765 29.2719C30.4367 28.925 30.1145 28.3349 30.1145 27.6932V18.9219H23.8982L24.1227 19.2345C24.8465 20.2426 25.2292 21.4316 25.2292 22.6729V29.5222C25.2292 30.3028 24.7588 30.99 24.0311 31.2727C23.3042 31.5553 22.4943 31.366 21.968 30.791C21.0073 29.7415 19.6227 28.0689 18.4815 26.0612C17.0906 23.6144 16.1062 20.8005 15.6432 19.3411C15.5637 19.0903 15.3337 18.9219 15.0708 18.9219H10.4131L11.2744 21.979C11.776 23.7593 12.4654 25.4925 13.3235 27.1304C13.6038 27.6654 13.3974 28.3265 12.8622 28.6068C12.3269 28.8871 11.6661 28.6805 11.3859 28.1456C10.4574 26.3735 9.71146 24.4984 9.16885 22.5722L8.28346 19.4298C8.10179 18.7848 8.22965 18.1087 8.63401 17.5746C9.0387 17.0406 9.6547 16.7344 10.3245 16.7344H15.0707C16.2912 16.7344 17.3592 17.5162 17.7283 18.6797C18.1653 20.0573 19.0912 22.7076 20.3831 24.9804C21.2267 26.4645 22.2232 27.7553 23.0417 28.7059V22.6729C23.0417 21.8922 22.801 21.1444 22.3457 20.5103L21.8813 19.8634C21.6387 19.5256 21.5104 19.127 21.5104 18.7108C21.5104 17.621 22.3969 16.7344 23.4867 16.7344H30.1237C31.3247 16.7344 32.302 17.7116 32.302 18.9128V27.1692C34.4464 24.8625 36.175 22.2316 37.4413 19.3461L37.9377 18.2152C38.3322 17.3161 39.2213 16.7355 40.203 16.7355C40.204 16.7355 40.2049 16.7355 40.2059 16.7355L44.892 16.7408C45.6925 16.7417 46.416 17.1524 46.827 17.8392C47.2383 18.526 47.2584 19.3576 46.881 20.0635L44.7161 24.1145C44.4164 24.6751 44.0793 25.2234 43.7139 25.744L41.1803 29.3543C41.0404 29.5537 41.0669 29.8203 41.2432 29.9883L43.0987 31.7552C44.6029 33.1875 45.9156 34.812 47.0001 36.5835L47.5551 37.4901C48.0013 38.2188 48.019 39.1346 47.6014 39.88C47.1839 40.6255 46.3937 41.0886 45.5391 41.0886Z" fill="#F6E1AE"></path> <path d="M14.4307 32.0885C14.0901 32.0885 13.7544 31.9299 13.5408 31.6319L14.4297 30.9946L13.5361 31.6255C13.5357 31.6248 13.5291 31.6157 13.5287 31.615C13.1767 31.1241 13.2894 30.4408 13.7802 30.0888C14.2712 29.7367 14.9544 29.8495 15.3064 30.3403L15.3186 30.3573C15.6706 30.8482 15.5579 31.5314 15.067 31.8835C14.874 32.0219 14.6512 32.0885 14.4307 32.0885Z" fill="#F6E1AE"></path> <path d="M22.407 50.75H13.4929C12.889 50.75 12.3992 50.2603 12.3992 49.6562C12.3992 49.0522 12.889 48.5625 13.4929 48.5625H22.407C23.0109 48.5625 23.5007 49.0522 23.5007 49.6562C23.5007 50.2603 23.0111 50.75 22.407 50.75Z" fill="#F6E1AE"></path> <path d="M27.3836 50.75H27.3706C26.7666 50.75 26.2769 50.2603 26.2769 49.6562C26.2769 49.0522 26.7666 48.5625 27.3706 48.5625H27.3836C27.9876 48.5625 28.4774 49.0522 28.4774 49.6562C28.4774 50.2603 27.9877 50.75 27.3836 50.75Z" fill="#F6E1AE"></path> <path d="M48.7812 56H7.21875C3.23827 56 0 52.7617 0 48.7812V7.21875C0 3.23827 3.23827 0 7.21875 0H48.7812C52.7617 0 56 3.23827 56 7.21875V48.7812C56 52.7617 52.7617 56 48.7812 56ZM7.21875 2.1875C4.44456 2.1875 2.1875 4.44456 2.1875 7.21875V48.7812C2.1875 51.5554 4.44456 53.8125 7.21875 53.8125H48.7812C51.5554 53.8125 53.8125 51.5554 53.8125 48.7812V7.21875C53.8125 4.44456 51.5554 2.1875 48.7812 2.1875H7.21875Z" fill="#F6E1AE"></path> </svg> 